<?xml version="1.0" encoding="utf-8"?>
<!-- Generator: Adobe Illustrator 25.3.1, SVG Export Plug-In . SVG Version: 6.00 Build 0)  -->
<svg version="1.1" id="Calque_1" xmlns="http://www.w3.org/2000/svg" xmlns:xlink="http://www.w3.org/1999/xlink" x="0px" y="0px"
	 viewBox="0 0 889 1486" style="enable-background:new 0 0 889 1486;" xml:space="preserve">
<style type="text/css">
	.st0{fill:#191919;}
	.st1{fill:#232222;}
	.st2{fill:#EFEFEF;}
</style>
<g>
	<path class="st0" d="M854.6,1486H34c-18.9,0-34.2-15.3-34.2-34.2V34.2C-0.2,15.3,15.1,0,34,0h820.5c18.9,0,34.2,15.3,34.2,34.2
		v1417.5C888.8,1470.7,873.5,1486,854.6,1486z"/>
</g>
<path class="st1" d="M889.2,1258.9c0,44,0,88,0,132c-1.3-0.2-2.2,0.6-3.1,1.3c-5.1,4.5-10.2,9-15.4,13.5
	c-26.5,22.9-50.5,48.7-79.9,68.1c-7.6,5-15.3,9-24.8,8.9c-13.3-0.2-26.7-0.5-40,0.1c-11.7,0.5-22.8-2.4-34-4.8
	c-12-2.5-23.9-5.7-35.9-8.4c-17.5-3.9-35.1-7.5-52.6-11.3c-18.8-4.1-37.6-8.3-56.4-12.6c-19.4-4.3-38.8-8.8-58.3-13.1
	c-19.9-4.4-39.9-8.7-59.8-13.2c-13-2.9-25.8-6.1-38.8-9c-12.5-2.8-25-5.3-37.5-8.1c-17.4-3.9-34.7-8-52-11.8
	c-22.4-4.9-44.8-9.7-67.2-14.6c-13.9-3.1-27.9-6.1-41.8-9.3c-17.3-4-34.5-8.2-51.9-12.1c-22.5-5-45.2-9.6-67.7-14.5
	c-24-5.3-47.9-10.8-71.9-16.2c0-50.3,0-100.7,0-151c0.6,0.2,1.2,0.5,1.8,0.4c23.7-2.3,47.4-4.8,71.1-7.1c3.1-0.3,5.1-1.5,7-3.9
	c30.3-37.6,60.8-75,91.1-112.7c33.4-41.7,67.9-82.6,100.4-125c8.4-10.9,17.6-21.2,26.4-31.9c73.5-90.2,146.7-180.7,220-271
	c1.8-2.3,1.9-4.1,0.7-6.6c-3.7-7.8-7.1-15.7-10.6-23.5c-18.3-41.6-36.6-83.1-54.8-124.8c-2.1-4.8-4.7-6.6-10-6.6
	c-20.1,0.2-40.3,0-60.5-0.3c-3.9,0-6.2,1-8.4,4.4c-42.9,64.8-86,129.4-129,194.1c-6.4,9.7-12.8,19.3-19.8,29.9
	c66.4-14.7,131.7-29.2,197-43.7c-0.7,1.3-1.7,1.8-2.7,2.3c-32.4,13.9-64.7,27.9-97.1,41.7C240.6,724,158.3,759.2,76,794.4
	c-2.8,1.2-4,2.9-4.6,5.8c-3.8,17.9-7.7,35.7-11.6,53.5c-10.5,48.1-21.1,96.1-31.7,144.2c-8.6,39-17.1,77.9-25.8,116.9
	c-0.2,0.9,0.4,2.9-1.9,2.2c0-72.3,0-144.7,0-217c0.9-0.5,0.8-1.3,1-2.2c3.1-13.8,6.2-27.6,9.3-41.3C34.1,753,57.6,649.5,81,546
	c12.5-55.4,25-110.9,37.7-166.3c0.9-3.9-0.1-5.5-3.2-7.5c-36-22.7-71.9-45.5-107.8-68.3c-1.7-3.4-4-6.5-3.9-10.6
	c0.2-7.8,0.1-15.7,0.1-23.5c0-4,1.2-7.7,3.4-10.8c3.3-4.7,7.1-9.2,10.9-13.6c9.5-11,21.6-19.2,32.7-28.5
	c31.7-26.6,63.7-52.9,95.6-79.2c8.2-6.8,15.5-14.7,25.2-19.4c14.3-7,28.7-13.7,42.8-21.1c20.8-10.9,43.2-16.9,64.9-25.3
	c14-5.5,28.4-10.1,42.6-15.1c13.9-4.9,27.9-9.8,41.8-14.8c10.8-3.8,21.5-7.8,32.2-11.7c10.5-3.8,20.9-7.6,31.5-11.2
	c11.5-3.9,23.1-7.2,34.5-11.4c13.4-5,26.7-1.4,35.5,9.7c14.9,18.7,30.2,37.1,45.2,55.8c20.8,25.8,41.3,51.7,62.1,77.4
	c23,28.4,46.2,56.8,69.2,85.2c6.4,7.9,12.6,15.8,18.9,23.8c-0.2,5.9-0.3,11.8-0.5,17.6c-0.9,1.3-0.8,2.6-0.1,4
	c-0.3,12.8-0.7,25.6-1,38.5c-0.8,39-1.4,77.9-2.5,116.9c-0.4,14.1-0.4,28.3-1.3,42.5c-0.4,5.7-2.6,10-6,14.3
	c-71,89.9-142,179.8-212.9,269.8c-0.9,1.2-2.5,2.1-2.3,4.3c2.2,0.6,4.5,1.3,6.7,1.7c21,3.6,42,7,63,10.6
	c47.4,8.1,94.8,16.2,142.1,24.5c19.6,3.4,39.6,5.2,57.5,15.2c4.8,2.7,10,4.5,15,6.8c34.5,15.8,70.2,29.2,102.7,49.5
	c11.6,7.3,23.5,14.3,35.9,20.4c0,39.3,0,78.7,0,118c-2.4,0.8-3.3-1.5-4.6-2.6c-24-19.2-47.9-38.6-71.9-57.8
	c-1.5-1.2-2.6-3.2-5.1-2.4c18.3,30.4,36.5,60.9,54.9,91.2c8.9,14.6,17.1,29.5,26.8,43.6c0,30,0,60,0,90c-2.5,1.2-2.5-1.4-3-2.4
	c-27.7-45.3-55.3-90.6-82.9-135.9c-36.4-59.8-72.9-119.6-109.2-179.5c-2.5-4.2-5.2-6.9-10.6-7.5c-10.6-1.1-21-3.2-31.6-4.9
	c-72.1-11.7-144.2-23.3-216.3-35.2c-4-0.7-6.2,0.1-8.8,3.2c-97.5,120-195,239.8-292.6,359.7c-2,2.5-2.4,4.1,0,6.7
	c46.7,50.8,93.3,101.6,139.9,152.4c1.4,1.6,3,2.5,5,3c8.6,2,17.2,4,25.8,6c62.2,14.2,124.5,28.4,186.7,42.8c3.8,0.9,5.4,0.3,7-3.5
	c29.9-73.9,59.9-147.8,89.9-221.7c17-41.9,34-83.8,51-125.6c0.7-1.7,0.8-3.9,3.2-4.9c1.3,2.5-0.1,4.5-0.6,6.4
	c-22.7,84.8-45.5,169.5-68.3,254.3c-9.3,34.5-18.5,69-27.9,103.5c-1,3.5-0.2,4.4,3.3,5.2c31.6,7.1,63.2,14.3,94.8,21.6
	c3.1,0.7,5.5,0.2,8.3-1.6c64.4-43.5,128.9-86.9,193.3-130.3C860.1,1278.1,874.6,1268.6,889.2,1258.9z M553.7,170.5
	c-0.6-2.8-2.3-4.6-4.8-5.9c-0.1-0.2-0.3-0.4-0.5-0.6c-0.9-3.7-3.6-6.2-6.1-8.8c-0.8-0.9-1.7-1.9-3-1.2c-1.6,0.8-1,2.3-0.6,3.5
	c0.9,2.8,2.1,5.6,3,8.5c6.1,20.2,12.1,40.4,18.2,60.7c9.3,30.9,18.5,61.8,27.8,92.7c9.4,31.2,18.7,62.4,28.2,93.6
	c3.2,10.5,6.2,20.7,3.5,32.1c-1.5,6.5-3.8,11-9.3,14.8c-5.5,3.8-10.8,5.8-17.5,5.2c-7.4-0.7-15-0.7-22.5-0.3
	c-7.5,0.4-14.9-0.7-22.4-0.7c-10.1,0-20.2-0.2-30.2-0.5c-2.3-0.1-4.9-1.3-6.5,0.9c-1.5,2,0.2,4.1,1,6.1
	c13.7,32.2,27.5,64.5,41.3,96.7c0.7,1.7,1,3.8,3.2,4.1c2.1,0.3,2.5-1.8,3.5-3.1c13.5-18.1,27-36.2,40.4-54.5
	c3.5-4.8,8-8.8,10.1-14.5c0.2-0.1,0.4-0.3,0.4-0.6c1,0.1,1.6-0.5,2-1.1c8-10.9,16-21.7,23.9-32.6c1.1-1.5,1.8-3.3,1.5-5.2
	c-1-6.5,0-12.9,0.1-19.4c0.4-19.6,0.2-39.3,1.2-58.9c0.4-8.6-0.1-17.2,0.7-25.8c0.9-8.9,0.8-17.9,0.8-26.9c0-10.8,0.2-21.5,0.4-32.2
	c0.1-6.2,1.7-13.1-0.9-18.2c-3.9-7.8-9.9-14.8-16.7-20.6c-0.1-0.3-0.3-0.4-0.5-0.6c-2.6-5.6-7.2-9.8-10.8-14.6
	c-2.7-3.5-4.5-7.8-8.7-9.9c-0.1-0.3-0.2-0.5-0.4-0.6c0.4-1.4-0.8-2.1-1.5-2.9c-14.7-18.3-29.4-36.6-44.1-54.8
	c-1.1-1.4-1.8-3.3-3.9-3.6L553.7,170.5z M107.4,649.1c2-0.7,3-2.5,4.3-4c54.8-59.6,109.5-119.3,164.2-179c1.5-1.6,2.9-3.4,4.3-5.1
	c-0.2-0.5-0.4-1.1-0.6-1.6c-11.1,0-22.2-0.1-33.3,0c-3.5,0-6.3-1.2-9.2-3.1c-26.1-17.4-52.3-34.8-78.6-52.2
	c-0.4,1.7-0.9,3.2-1.2,4.8c-12.6,59.2-25.2,118.4-37.7,177.6c-4.3,20.7-9.5,41.1-12.8,62c-0.1,0.4-0.3,1.1-0.2,1.2
	C107.4,650,107.3,649.4,107.4,649.1z M560.4,413.3c-0.6-2.3-1-4.1-1.6-5.8c-18.2-60.5-36.4-120.9-54.6-181.4
	c-15.9-53-31.9-106-47.7-159c-0.9-2.9-1.5-4.4-5.2-3c-65.8,24.7-131.4,50-197.5,73.6c-19.9,7.1-39.3,15.5-59,23.1
	c-5.1,1.9-9.4,4.7-13.4,8.3c-39.3,35.2-78.6,70.5-118.7,104.9c-3.6,3.1-2.6,4.6,0.6,6.6c5.4,3.3,10.9,6.4,16.2,9.9
	c59.7,39.8,119.3,79.6,178.9,119.4c2.5,1.6,4.9,2.4,7.9,2.4c90.9,0.3,181.9,0.7,272.8,1C546.1,413.4,553,413.3,560.4,413.3z
	 M142.5,1306.3c-1.5-2.7-2.2-4.3-3.2-5.8c-20.5-28-41.1-56-61.6-84.1c-1.3-1.8-2.6-2.6-4.9-2.3c-21.3,2.6-42.6,5.1-63.9,7.6
	c-2.3,0.3-5.5,0.3-6.1,2.4c-0.7,2.4,2.4,3.6,4.2,4.9c31.4,23,62.8,45.9,94.2,68.8c1.3,1,2.5,2.1,4.3,2.4
	C117.5,1302.2,129.4,1304.2,142.5,1306.3z M886.3,1321.1c-5.2,2.7-10.3,4.7-14.8,7.7c-11.8,7.7-23.4,15.8-35.1,23.7
	c-30.5,20.5-61,40.9-91.5,61.4c-7.6,5.1-15.2,10.1-22.7,15.2c-1,0.7-2.6,1.4-2,3c0.4,1.2,1.9,1.1,3,1.3c2.6,0.4,5.4,0.6,7.8,1.5
	c14,5.2,25.5-0.1,36-8.6c9.4-7.6,18.2-16.1,27.4-24c22.4-19.3,44.8-38.7,67.4-57.8C870.3,1337.2,878.4,1329.5,886.3,1321.1z
	 M214.7,612.8c-0.4-0.4-0.9-0.8-1.3-1.2c-37.6,40.5-75.3,80.9-113.7,122.1c3.9,0.2,6.4,0.1,8.9-1c11.2-5,22.5-9.9,33.8-14.6
	c2.9-1.2,5-3,6.7-5.6c18.9-28.8,37.8-57.4,56.8-86.2C208.8,621.9,211.7,617.3,214.7,612.8z"/>
<path class="st2" d="M497.4,462.5c83.2,8.1,162.7,75.5,177.5,169.1c1.2,0.2,2.4,0.3,4.2,0.6c-4.4,6.2-8.5,12.2-12.2,17.4
	c-5.8-5.1-11.6-10.1-18.2-15.8c2.5-0.7,3.6-1,5.2-1.4c-7.4-39.1-25.3-72.5-54-100c-28.7-27.4-62.9-43.6-102.4-49.4
	C497.4,476.1,497.4,469.3,497.4,462.5z"/>
<path class="st2" d="M237.4,645.2c-7,0-13.5,0-20,0c4.8-72.1,66.3-160.9,168.8-177.6c0.2-1.2,0.3-2.4,0.6-4.2
	c6.2,4.3,12.2,8.5,17.4,12.2c-5.1,5.8-10.1,11.6-15.9,18.1c-0.7-2.4-1-3.5-1.4-5.1c-39.1,7.4-72.5,25.3-100,54
	C259.3,571.3,243.1,605.6,237.4,645.2z"/>
<path class="st2" d="M399.6,937.1c0,6.9,0,13.5,0,21.2c-10.9-2.4-21.6-3.8-31.8-7.1c-78.6-25.1-126.9-78-144.7-158.6
	c-0.6-2.9-0.8-5.6-5.5-4.6c4.6-6.5,8.8-12.4,12.3-17.4c5.8,5,11.7,10.1,18.4,15.9c-2.6,0.5-3.7,0.7-4.8,0.9
	C253.6,852.2,308,923.7,399.6,937.1z"/>
<path class="st2" d="M659.6,774.8c6.9,0,13.5,0,20,0C675,846,614.2,935.3,510.9,952.4c-0.2,1.2-0.3,2.4-0.6,4.2
	c-6.2-4.3-12.1-8.5-17-11.9c5-5.8,10.1-11.7,15.8-18.3c0.4,2.4,0.6,3.4,0.9,5c39.2-7.4,72.7-25.3,100.2-54
	C637.6,848.7,653.8,814.4,659.6,774.8z"/>
<path class="st2" d="M420,473.2c0-11.2,0-22.4,0-33.6c0-7.8,3.8-11.7,11.5-11.7c11.6,0,23.2,0,34.8,0c7.7,0,11.5,3.9,11.5,11.7
	c0,22.4,0,44.8,0,67.1c0,7.8-3.8,11.7-11.5,11.7c-11.6,0-23.2,0-34.8,0c-7.7,0-11.5-3.9-11.5-11.7C420,495.6,420,484.4,420,473.2z
	 M474.6,473.4c0-11.2,0-22.4,0-33.5c0-6.4-2.3-8.7-8.5-8.7c-11.5,0-22.9,0-34.4,0c-6.1,0-8.5,2.3-8.5,8.3c0,22.5,0,45,0,67.5
	c0,6,2.4,8.3,8.5,8.3c11.5,0,22.9,0,34.4,0c6.2,0,8.4-2.3,8.5-8.7C474.6,495.5,474.6,484.5,474.6,473.4z"/>
<path class="st2" d="M695.3,709.1c0,11.3,0,22.7,0,34c0,7.4-4,11.3-11.5,11.3c-11.6,0-23.2,0-34.8,0c-7.7,0-11.5-3.9-11.5-11.7
	c0-22.4,0-44.8,0-67.1c0-8,3.8-11.7,11.9-11.8c11.5,0,22.9,0,34.4,0c7.7,0,11.5,3.9,11.5,11.7C695.3,686.7,695.3,697.9,695.3,709.1z
	 M692,709.3c0-11.5,0-22.9,0-34.4c0-5.2-2.5-7.7-7.7-7.7c-11.9-0.1-23.8-0.1-35.6,0c-5.5,0-7.9,2.5-7.9,8c0,22.6,0,45.3,0,67.9
	c0,5.8,2.4,8.1,8.2,8.2c11.6,0,23.2,0,34.8,0c6,0,8.3-2.4,8.3-8.4C692,731.6,692,720.4,692,709.3z"/>
<path class="st2" d="M256.1,711c0,11,0,22.1,0,33.1c0,8.1-3.7,11.9-11.7,11.9c-11.5,0-22.9,0-34.4,0c-7.8,0-11.7-3.8-11.7-11.5
	c0-22.5,0-45,0-67.6c0-7.5,3.9-11.5,11.3-11.5c11.7,0,23.5,0,35.2,0c7.4,0,11.3,4,11.3,11.5C256.2,688.4,256.1,699.7,256.1,711z
	 M252.9,711c0-11.2,0-22.4,0-33.5c0-6.3-2.3-8.7-8.5-8.7c-11.5,0-22.9,0-34.4,0c-6,0-8.4,2.3-8.4,8.3c0,22.5,0,45,0,67.5
	c0,5.9,2.4,8.2,8.5,8.2c11.5,0,22.9,0,34.4,0c6.1,0,8.4-2.3,8.4-8.3C252.9,733.4,252.9,722.2,252.9,711z"/>
<path class="st2" d="M477.8,947.8c0,11,0,22.1,0,33.1c0,8.1-3.7,11.9-11.7,11.9c-11.6,0-23.2,0-34.8,0c-7.2,0-11.3-3.9-11.3-11.1
	c0-22.8,0-45.6,0-68.4c0-7.1,4-11.1,11.3-11.1c11.7,0,23.5,0,35.2,0c7.4,0,11.3,4,11.3,11.5C477.8,925.2,477.8,936.5,477.8,947.8z
	 M474.6,947.8c0-11.2,0-22.4,0-33.5c0-6.4-2.3-8.7-8.5-8.7c-11.5,0-22.9,0-34.4,0c-6.1,0-8.5,2.3-8.5,8.3c0,22.5,0,45,0,67.5
	c0,6,2.4,8.3,8.5,8.3c11.5,0,22.9,0,34.4,0c6.2,0,8.4-2.3,8.5-8.7C474.6,969.9,474.6,958.9,474.6,947.8z"/>
<path class="st2" d="M103,40.2c20.3,2,39.8,18.5,43.4,41.3c0.3,0,0.6,0.1,1,0.1c-1.1,1.5-2.1,3-3,4.2c-1.4-1.2-2.8-2.5-4.5-3.9
	c0.6-0.2,0.9-0.2,1.3-0.4C139.4,72.2,135,64,128,57.3c-7-6.7-15.4-10.7-25-12.1C103,43.5,103,41.9,103,40.2z"/>
<path class="st2" d="M39.4,84.9c-1.7,0-3.3,0-4.9,0c1.2-17.6,16.2-39.3,41.2-43.4c0-0.3,0.1-0.6,0.1-1c1.5,1.1,3,2.1,4.3,3
	c-1.2,1.4-2.5,2.8-3.9,4.4c-0.2-0.6-0.2-0.9-0.4-1.2c-9.6,1.8-17.7,6.2-24.4,13.2C44.8,66.8,40.8,75.2,39.4,84.9z"/>
<path class="st2" d="M79.1,156.2c0,1.7,0,3.3,0,5.2c-2.7-0.6-5.3-0.9-7.8-1.7c-19.2-6.1-31-19.1-35.4-38.8c-0.2-0.7-0.2-1.4-1.3-1.1
	c1.1-1.6,2.1-3,3-4.3c1.4,1.2,2.8,2.5,4.5,3.9c-0.6,0.1-0.9,0.2-1.2,0.2C43.4,135.5,56.7,153,79.1,156.2z"/>
<path class="st2" d="M142.6,116.6c1.7,0,3.3,0,4.9,0c-1.1,17.4-16,39.2-41.2,43.4c0,0.3-0.1,0.6-0.1,1c-1.5-1.1-3-2.1-4.1-2.9
	c1.2-1.4,2.5-2.9,3.9-4.5c0.1,0.6,0.2,0.8,0.2,1.2c9.6-1.8,17.8-6.2,24.5-13.2C137.2,134.6,141.2,126.3,142.6,116.6z"/>
<path class="st2" d="M84.1,42.9c0-2.7,0-5.5,0-8.2c0-1.9,0.9-2.9,2.8-2.9c2.8,0,5.7,0,8.5,0c1.9,0,2.8,1,2.8,2.9
	c0,5.5,0,10.9,0,16.4c0,1.9-0.9,2.9-2.8,2.9c-2.8,0-5.7,0-8.5,0c-1.9,0-2.8-1-2.8-2.9C84,48.3,84.1,45.6,84.1,42.9z M97.4,42.9
	c0-2.7,0-5.5,0-8.2c0-1.6-0.6-2.1-2.1-2.1c-2.8,0-5.6,0-8.4,0c-1.5,0-2.1,0.6-2.1,2c0,5.5,0,11,0,16.5c0,1.5,0.6,2,2.1,2
	c2.8,0,5.6,0,8.4,0c1.5,0,2.1-0.6,2.1-2.1C97.4,48.3,97.4,45.6,97.4,42.9z"/>
<path class="st2" d="M151.3,100.5c0,2.8,0,5.5,0,8.3c0,1.8-1,2.8-2.8,2.8c-2.8,0-5.7,0-8.5,0c-1.9,0-2.8-1-2.8-2.9
	c0-5.5,0-10.9,0-16.4c0-1.9,0.9-2.9,2.9-2.9c2.8,0,5.6,0,8.4,0c1.9,0,2.8,1,2.8,2.9C151.3,95,151.3,97.8,151.3,100.5z M150.5,100.5
	c0-2.8,0-5.6,0-8.4c0-1.3-0.6-1.9-1.9-1.9c-2.9,0-5.8,0-8.7,0c-1.3,0-1.9,0.6-1.9,1.9c0,5.5,0,11.1,0,16.6c0,1.4,0.6,2,2,2
	c2.8,0,5.7,0,8.5,0c1.5,0,2-0.6,2-2C150.5,106,150.5,103.3,150.5,100.5z"/>
<path class="st2" d="M44,101c0,2.7,0,5.4,0,8.1c0,2-0.9,2.9-2.9,2.9c-2.8,0-5.6,0-8.4,0c-1.9,0-2.9-0.9-2.9-2.8c0-5.5,0-11,0-16.5
	c0-1.8,1-2.8,2.8-2.8c2.9,0,5.7,0,8.6,0c1.8,0,2.8,1,2.8,2.8C44,95.4,44,98.2,44,101z M43.2,101c0-2.7,0-5.5,0-8.2
	c0-1.5-0.6-2.1-2.1-2.1c-2.8,0-5.6,0-8.4,0c-1.5,0-2.1,0.6-2.1,2c0,5.5,0,11,0,16.5c0,1.4,0.6,2,2.1,2c2.8,0,5.6,0,8.4,0
	c1.5,0,2.1-0.6,2.1-2C43.2,106.4,43.2,103.7,43.2,101z"/>
<path class="st2" d="M98.2,158.9c0,2.7,0,5.4,0,8.1c0,2-0.9,2.9-2.9,2.9c-2.8,0-5.7,0-8.5,0c-1.8,0-2.8-1-2.8-2.7
	c0-5.6,0-11.1,0-16.7c0-1.7,1-2.7,2.8-2.7c2.9,0,5.7,0,8.6,0c1.8,0,2.8,1,2.8,2.8C98.2,153.3,98.2,156.1,98.2,158.9z M97.4,158.9
	c0-2.7,0-5.5,0-8.2c0-1.6-0.6-2.1-2.1-2.1c-2.8,0-5.6,0-8.4,0c-1.5,0-2.1,0.6-2.1,2c0,5.5,0,11,0,16.5c0,1.5,0.6,2,2.1,2
	c2.8,0,5.6,0,8.4,0c1.5,0,2.1-0.6,2.1-2.1C97.4,164.3,97.4,161.6,97.4,158.9z"/>
<path class="st2" d="M806.2,1321.1c20.3,2,39.8,18.5,43.4,41.3c0.3,0,0.6,0.1,1,0.1c-1.1,1.5-2.1,3-3,4.2c-1.4-1.2-2.8-2.5-4.5-3.9
	c0.6-0.2,0.9-0.2,1.3-0.4c-1.8-9.6-6.2-17.7-13.2-24.5c-7-6.7-15.4-10.7-25-12.1C806.2,1324.4,806.2,1322.8,806.2,1321.1z"/>
<path class="st2" d="M742.6,1365.8c-1.7,0-3.3,0-4.9,0c1.2-17.6,16.2-39.3,41.2-43.4c0-0.3,0.1-0.6,0.1-1c1.5,1.1,3,2.1,4.3,3
	c-1.2,1.4-2.5,2.8-3.9,4.4c-0.2-0.6-0.2-0.9-0.4-1.2c-9.6,1.8-17.7,6.2-24.4,13.2C748,1347.7,744,1356.1,742.6,1365.8z"/>
<path class="st2" d="M782.2,1437.1c0,1.7,0,3.3,0,5.2c-2.7-0.6-5.3-0.9-7.8-1.7c-19.2-6.1-31-19.1-35.4-38.8
	c-0.2-0.7-0.2-1.4-1.3-1.1c1.1-1.6,2.1-3,3-4.3c1.4,1.2,2.8,2.5,4.5,3.9c-0.6,0.1-0.9,0.2-1.2,0.2
	C746.6,1416.3,759.9,1433.8,782.2,1437.1z"/>
<path class="st2" d="M845.8,1397.4c1.7,0,3.3,0,4.9,0c-1.1,17.4-16,39.2-41.2,43.4c0,0.3-0.1,0.6-0.1,1c-1.5-1.1-3-2.1-4.1-2.9
	c1.2-1.4,2.5-2.9,3.9-4.5c0.1,0.6,0.2,0.8,0.2,1.2c9.6-1.8,17.8-6.2,24.5-13.2C840.4,1415.5,844.4,1407.1,845.8,1397.4z"/>
<path class="st2" d="M787.2,1323.7c0-2.7,0-5.5,0-8.2c0-1.9,0.9-2.9,2.8-2.9c2.8,0,5.7,0,8.5,0c1.9,0,2.8,1,2.8,2.9
	c0,5.5,0,10.9,0,16.4c0,1.9-0.9,2.9-2.8,2.9c-2.8,0-5.7,0-8.5,0c-1.9,0-2.8-1-2.8-2.9C787.2,1329.2,787.2,1326.4,787.2,1323.7z
	 M800.6,1323.8c0-2.7,0-5.5,0-8.2c0-1.6-0.6-2.1-2.1-2.1c-2.8,0-5.6,0-8.4,0c-1.5,0-2.1,0.6-2.1,2c0,5.5,0,11,0,16.5
	c0,1.5,0.6,2,2.1,2c2.8,0,5.6,0,8.4,0c1.5,0,2.1-0.6,2.1-2.1C800.6,1329.2,800.6,1326.5,800.6,1323.8z"/>
<path class="st2" d="M854.5,1381.4c0,2.8,0,5.5,0,8.3c0,1.8-1,2.8-2.8,2.8c-2.8,0-5.7,0-8.5,0c-1.9,0-2.8-1-2.8-2.9
	c0-5.5,0-10.9,0-16.4c0-1.9,0.9-2.9,2.9-2.9c2.8,0,5.6,0,8.4,0c1.9,0,2.8,1,2.8,2.9C854.5,1375.9,854.5,1378.6,854.5,1381.4z
	 M853.7,1381.4c0-2.8,0-5.6,0-8.4c0-1.3-0.6-1.9-1.9-1.9c-2.9,0-5.8,0-8.7,0c-1.3,0-1.9,0.6-1.9,1.9c0,5.5,0,11.1,0,16.6
	c0,1.4,0.6,2,2,2c2.8,0,5.7,0,8.5,0c1.5,0,2-0.6,2-2C853.7,1386.9,853.7,1384.1,853.7,1381.4z"/>
<path class="st2" d="M747.2,1381.8c0,2.7,0,5.4,0,8.1c0,2-0.9,2.9-2.9,2.9c-2.8,0-5.6,0-8.4,0c-1.9,0-2.9-0.9-2.9-2.8
	c0-5.5,0-11,0-16.5c0-1.8,1-2.8,2.8-2.8c2.9,0,5.7,0,8.6,0c1.8,0,2.8,1,2.8,2.8C747.2,1376.3,747.2,1379.1,747.2,1381.8z
	 M746.4,1381.8c0-2.7,0-5.5,0-8.2c0-1.5-0.6-2.1-2.1-2.1c-2.8,0-5.6,0-8.4,0c-1.5,0-2.1,0.6-2.1,2c0,5.5,0,11,0,16.5
	c0,1.4,0.6,2,2.1,2c2.8,0,5.6,0,8.4,0c1.5,0,2.1-0.6,2.1-2C746.4,1387.3,746.4,1384.6,746.4,1381.8z"/>
<path class="st2" d="M801.4,1439.7c0,2.7,0,5.4,0,8.1c0,2-0.9,2.9-2.9,2.9c-2.8,0-5.7,0-8.5,0c-1.8,0-2.8-1-2.8-2.7
	c0-5.6,0-11.1,0-16.7c0-1.7,1-2.7,2.8-2.7c2.9,0,5.7,0,8.6,0c1.8,0,2.8,1,2.8,2.8C801.4,1434.2,801.4,1436.9,801.4,1439.7z
	 M800.6,1439.7c0-2.7,0-5.5,0-8.2c0-1.6-0.6-2.1-2.1-2.1c-2.8,0-5.6,0-8.4,0c-1.5,0-2.1,0.6-2.1,2c0,5.5,0,11,0,16.5
	c0,1.5,0.6,2,2.1,2c2.8,0,5.6,0,8.4,0c1.5,0,2.1-0.6,2.1-2.1C800.6,1445.1,800.6,1442.4,800.6,1439.7z"/>
</svg>
