<?xml version="1.0" encoding="utf-8"?>
<!-- Generator: Adobe Illustrator 25.3.1, SVG Export Plug-In . SVG Version: 6.00 Build 0)  -->
<svg version="1.1" id="Calque_1" xmlns="http://www.w3.org/2000/svg" xmlns:xlink="http://www.w3.org/1999/xlink" x="0px" y="0px"
	 viewBox="0 0 889 1486" style="enable-background:new 0 0 889 1486;" xml:space="preserve">
<style type="text/css">
	.st0{fill:#191919;}
	.st1{fill:#232222;}
	.st2{fill:url(#SVGID_1_);}
	.st3{fill:url(#SVGID_2_);}
	.st4{fill:url(#SVGID_3_);}
	.st5{fill:url(#SVGID_4_);}
	.st6{enable-background:new    ;}
	.st7{fill:#EFEFEF;}
</style>
<g>
	<path class="st0" d="M854.6,1486H34c-18.9,0-34.2-15.3-34.2-34.2V34.2C-0.2,15.3,15.1,0,34,0h820.5c18.9,0,34.2,15.3,34.2,34.2
		v1417.5C888.8,1470.7,873.5,1486,854.6,1486z"/>
</g>
<path class="st1" d="M889.2,1258.9c0,44,0,88,0,132c-1.3-0.2-2.2,0.6-3.1,1.3c-5.1,4.5-10.2,9-15.4,13.5
	c-26.5,22.9-50.5,48.7-79.9,68.1c-7.6,5-15.3,9-24.8,8.9c-13.3-0.2-26.7-0.5-40,0.1c-11.7,0.5-22.8-2.4-34-4.8
	c-12-2.5-23.9-5.7-35.9-8.4c-17.5-3.9-35.1-7.5-52.6-11.3c-18.8-4.1-37.6-8.3-56.4-12.6c-19.4-4.3-38.8-8.8-58.3-13.1
	c-19.9-4.4-39.9-8.7-59.8-13.2c-13-2.9-25.8-6.1-38.8-9c-12.5-2.8-25-5.3-37.5-8.1c-17.4-3.9-34.7-8-52-11.8
	c-22.4-4.9-44.8-9.7-67.2-14.6c-13.9-3.1-27.9-6.1-41.8-9.3c-17.3-4-34.5-8.2-51.9-12.1c-22.5-5-45.2-9.6-67.7-14.5
	c-24-5.3-47.9-10.8-71.9-16.2c0-50.3,0-100.7,0-151c0.6,0.2,1.2,0.5,1.8,0.4c23.7-2.3,47.4-4.8,71.1-7.1c3.1-0.3,5.1-1.5,7-3.9
	c30.3-37.6,60.8-75,91.1-112.7c33.4-41.7,67.9-82.6,100.4-125c8.4-10.9,17.6-21.2,26.4-31.9c73.5-90.2,146.7-180.7,220-271
	c1.8-2.3,1.9-4.1,0.7-6.6c-3.7-7.8-7.1-15.7-10.6-23.5c-18.3-41.6-36.6-83.1-54.8-124.8c-2.1-4.8-4.7-6.6-10-6.6
	c-20.1,0.2-40.3,0-60.5-0.3c-3.9,0-6.2,1-8.4,4.4c-42.9,64.8-86,129.4-129,194.1c-6.4,9.7-12.8,19.3-19.8,29.9
	c66.4-14.7,131.7-29.2,197-43.7c-0.7,1.3-1.7,1.8-2.7,2.3c-32.4,13.9-64.7,27.9-97.1,41.7C240.6,724,158.3,759.2,76,794.4
	c-2.8,1.2-4,2.9-4.6,5.8c-3.8,17.9-7.7,35.7-11.6,53.5c-10.5,48.1-21.1,96.1-31.7,144.2c-8.6,39-17.1,77.9-25.8,116.9
	c-0.2,0.9,0.4,2.9-1.9,2.2c0-72.3,0-144.7,0-217c0.9-0.5,0.8-1.3,1-2.2c3.1-13.8,6.2-27.6,9.3-41.3C34.1,753,57.6,649.5,81,546
	c12.5-55.4,25-110.9,37.7-166.3c0.9-3.9-0.1-5.5-3.2-7.5c-36-22.7-71.9-45.5-107.8-68.3c-1.7-3.4-4-6.5-3.9-10.6
	c0.2-7.8,0.1-15.7,0.1-23.5c0-4,1.2-7.7,3.4-10.8c3.3-4.7,7.1-9.2,10.9-13.6c9.5-11,21.6-19.2,32.7-28.5
	c31.7-26.6,63.7-52.9,95.6-79.2c8.2-6.8,15.5-14.7,25.2-19.4c14.3-7,28.7-13.7,42.8-21.1c20.8-10.9,43.2-16.9,64.9-25.3
	c14-5.5,28.4-10.1,42.6-15.1c13.9-4.9,27.9-9.8,41.8-14.8c10.8-3.8,21.5-7.8,32.2-11.7c10.5-3.8,20.9-7.6,31.5-11.2
	c11.5-3.9,23.1-7.2,34.5-11.4c13.4-5,26.7-1.4,35.5,9.7c14.9,18.7,30.2,37.1,45.2,55.8c20.8,25.8,41.3,51.7,62.1,77.4
	c23,28.4,46.2,56.8,69.2,85.2c6.4,7.9,12.6,15.8,18.9,23.8c-0.2,5.9-0.3,11.8-0.5,17.6c-0.9,1.3-0.8,2.6-0.1,4
	c-0.3,12.8-0.7,25.6-1,38.5c-0.8,39-1.4,77.9-2.5,116.9c-0.4,14.1-0.4,28.3-1.3,42.5c-0.4,5.7-2.6,10-6,14.3
	c-71,89.9-142,179.8-212.9,269.8c-0.9,1.2-2.5,2.1-2.3,4.3c2.2,0.6,4.5,1.3,6.7,1.7c21,3.6,42,7,63,10.6
	c47.4,8.1,94.8,16.2,142.1,24.5c19.6,3.4,39.6,5.2,57.5,15.2c4.8,2.7,10,4.5,15,6.8c34.5,15.8,70.2,29.2,102.7,49.5
	c11.6,7.3,23.5,14.3,35.9,20.4c0,39.3,0,78.7,0,118c-2.4,0.8-3.3-1.5-4.6-2.6c-24-19.2-47.9-38.6-71.9-57.8
	c-1.5-1.2-2.6-3.2-5.1-2.4c18.3,30.4,36.5,60.9,54.9,91.2c8.9,14.6,17.1,29.5,26.8,43.6c0,30,0,60,0,90c-2.5,1.2-2.5-1.4-3-2.4
	c-27.7-45.3-55.3-90.6-82.9-135.9c-36.4-59.8-72.9-119.6-109.2-179.5c-2.5-4.2-5.2-6.9-10.6-7.5c-10.6-1.1-21-3.2-31.6-4.9
	c-72.1-11.7-144.2-23.3-216.3-35.2c-4-0.7-6.2,0.1-8.8,3.2c-97.5,120-195,239.8-292.6,359.7c-2,2.5-2.4,4.1,0,6.7
	c46.7,50.8,93.3,101.6,139.9,152.4c1.4,1.6,3,2.5,5,3c8.6,2,17.2,4,25.8,6c62.2,14.2,124.5,28.4,186.7,42.8c3.8,0.9,5.4,0.3,7-3.5
	c29.9-73.9,59.9-147.8,89.9-221.7c17-41.9,34-83.8,51-125.6c0.7-1.7,0.8-3.9,3.2-4.9c1.3,2.5-0.1,4.5-0.6,6.4
	c-22.7,84.8-45.5,169.5-68.3,254.3c-9.3,34.5-18.5,69-27.9,103.5c-1,3.5-0.2,4.4,3.3,5.2c31.6,7.1,63.2,14.3,94.8,21.6
	c3.1,0.7,5.5,0.2,8.3-1.6c64.4-43.5,128.9-86.9,193.3-130.3C860.1,1278.1,874.6,1268.6,889.2,1258.9z M553.7,170.5
	c-0.6-2.8-2.3-4.6-4.8-5.9c-0.1-0.2-0.3-0.4-0.5-0.6c-0.9-3.7-3.6-6.2-6.1-8.8c-0.8-0.9-1.7-1.9-3-1.2c-1.6,0.8-1,2.3-0.6,3.5
	c0.9,2.8,2.1,5.6,3,8.5c6.1,20.2,12.1,40.4,18.2,60.7c9.3,30.9,18.5,61.8,27.8,92.7c9.4,31.2,18.7,62.4,28.2,93.6
	c3.2,10.5,6.2,20.7,3.5,32.1c-1.5,6.5-3.8,11-9.3,14.8s-10.8,5.8-17.5,5.2c-7.4-0.7-15-0.7-22.5-0.3c-7.5,0.4-14.9-0.7-22.4-0.7
	c-10.1,0-20.2-0.2-30.2-0.5c-2.3-0.1-4.9-1.3-6.5,0.9c-1.5,2,0.2,4.1,1,6.1c13.7,32.2,27.5,64.5,41.3,96.7c0.7,1.7,1,3.8,3.2,4.1
	c2.1,0.3,2.5-1.8,3.5-3.1c13.5-18.1,27-36.2,40.4-54.5c3.5-4.8,8-8.8,10.1-14.5c0.2-0.1,0.4-0.3,0.4-0.6c1,0.1,1.6-0.5,2-1.1
	c8-10.9,16-21.7,23.9-32.6c1.1-1.5,1.8-3.3,1.5-5.2c-1-6.5,0-12.9,0.1-19.4c0.4-19.6,0.2-39.3,1.2-58.9c0.4-8.6-0.1-17.2,0.7-25.8
	c0.9-8.9,0.8-17.9,0.8-26.9c0-10.8,0.2-21.5,0.4-32.2c0.1-6.2,1.7-13.1-0.9-18.2c-3.9-7.8-9.9-14.8-16.7-20.6
	c-0.1-0.3-0.3-0.4-0.5-0.6c-2.6-5.6-7.2-9.8-10.8-14.6c-2.7-3.5-4.5-7.8-8.7-9.9c-0.1-0.3-0.2-0.5-0.4-0.6c0.4-1.4-0.8-2.1-1.5-2.9
	c-14.7-18.3-29.4-36.6-44.1-54.8c-1.1-1.4-1.8-3.3-3.9-3.6L553.7,170.5z M107.4,649.1c2-0.7,3-2.5,4.3-4
	c54.8-59.6,109.5-119.3,164.2-179c1.5-1.6,2.9-3.4,4.3-5.1c-0.2-0.5-0.4-1.1-0.6-1.6c-11.1,0-22.2-0.1-33.3,0
	c-3.5,0-6.3-1.2-9.2-3.1c-26.1-17.4-52.3-34.8-78.6-52.2c-0.4,1.7-0.9,3.2-1.2,4.8c-12.6,59.2-25.2,118.4-37.7,177.6
	c-4.3,20.7-9.5,41.1-12.8,62c-0.1,0.4-0.3,1.1-0.2,1.2C107.4,650,107.3,649.4,107.4,649.1z M560.4,413.3c-0.6-2.3-1-4.1-1.6-5.8
	c-18.2-60.5-36.4-120.9-54.6-181.4c-15.9-53-31.9-106-47.7-159c-0.9-2.9-1.5-4.4-5.2-3c-65.8,24.7-131.4,50-197.5,73.6
	c-19.9,7.1-39.3,15.5-59,23.1c-5.1,1.9-9.4,4.7-13.4,8.3c-39.3,35.2-78.6,70.5-118.7,104.9c-3.6,3.1-2.6,4.6,0.6,6.6
	c5.4,3.3,10.9,6.4,16.2,9.9c59.7,39.8,119.3,79.6,178.9,119.4c2.5,1.6,4.9,2.4,7.9,2.4c90.9,0.3,181.9,0.7,272.8,1
	C546.1,413.4,553,413.3,560.4,413.3z M142.5,1306.3c-1.5-2.7-2.2-4.3-3.2-5.8c-20.5-28-41.1-56-61.6-84.1c-1.3-1.8-2.6-2.6-4.9-2.3
	c-21.3,2.6-42.6,5.1-63.9,7.6c-2.3,0.3-5.5,0.3-6.1,2.4c-0.7,2.4,2.4,3.6,4.2,4.9c31.4,23,62.8,45.9,94.2,68.8
	c1.3,1,2.5,2.1,4.3,2.4C117.5,1302.2,129.4,1304.2,142.5,1306.3z M886.3,1321.1c-5.2,2.7-10.3,4.7-14.8,7.7
	c-11.8,7.7-23.4,15.8-35.1,23.7c-30.5,20.5-61,40.9-91.5,61.4c-7.6,5.1-15.2,10.1-22.7,15.2c-1,0.7-2.6,1.4-2,3
	c0.4,1.2,1.9,1.1,3,1.3c2.6,0.4,5.4,0.6,7.8,1.5c14,5.2,25.5-0.1,36-8.6c9.4-7.6,18.2-16.1,27.4-24c22.4-19.3,44.8-38.7,67.4-57.8
	C870.3,1337.2,878.4,1329.5,886.3,1321.1z M214.7,612.8c-0.4-0.4-0.9-0.8-1.3-1.2c-37.6,40.5-75.3,80.9-113.7,122.1
	c3.9,0.2,6.4,0.1,8.9-1c11.2-5,22.5-9.9,33.8-14.6c2.9-1.2,5-3,6.7-5.6c18.9-28.8,37.8-57.4,56.8-86.2
	C208.8,621.9,211.7,617.3,214.7,612.8z"/>
<linearGradient id="SVGID_1_" gradientUnits="userSpaceOnUse" x1="583.6832" y1="709.3591" x2="758.7405" y2="950.3048" gradientTransform="matrix(1 0 0 -1 0 1486)">
	<stop  offset="0" style="stop-color:#3DFA80"/>
	<stop  offset="1" style="stop-color:#217E86"/>
</linearGradient>
<path class="st2" d="M707.6,798.2c-5.4-1.3-10.8-2.9-16.3-3.8c-34.1-5.8-68.3-11.5-102.4-17.2c-2.4-0.4-4.6-1.3-7.2-2
	c1.2-3.8,3-4.7,6.2-4.2c41.2,7.1,82.4,14.1,123.6,21c1.3,0.2,2.6,0,4.2-0.9c-2-0.5-4.1-1-6-1.6c-37.9-12.8-75.7-25.6-113.6-38.3
	c-3.9-1.3-5-2.9-4.3-7.1c1.2-6.7,1.5-13.5,2.2-20.2c0.8-0.3,1.2-0.7,1.6-0.6c9.1,1.8,14.9-2.9,21-9.1c23.7-24.1,47.8-47.8,72-71.5
	c3.4-3.3,4.5-6.1,2.7-10.8c-2.4-6-3.7-12.4-5.9-18.5c-0.6-1.6-2.6-3.2-4.4-3.8c-5.9-1.8-10.4-0.5-14.4,5
	c-7.2,9.8-15.4,18.7-24.2,29.2c11.7-1.2,22.1-2.3,32.5-3.4c0.1,0.2,0.1,0.4,0.2,0.6c-8.6,2.7-17.2,5.4-25.8,8.1
	c-10.7,3.3-21.4,6.4-31.9,10c-2.1,0.7-4.4,3-5.1,5.1c-5.1,14.3-9.8,28.7-14.7,43c-0.3,0.9-0.7,1.8-2.1,2.5
	c0.8-8.1,1.6-16.1,2.5-24.2c2.4-20.2,11.4-38.5,17.3-57.7c3.7-11.9,8-23.7,12.2-35.4c1-2.8,0.7-4.5-1.8-6.3
	c-5-3.6-9.7-7.5-14.9-11.5c-0.6,1.4-1.2,2.8-1.8,4.2c-0.4,0-0.8,0-1.2,0c-0.2-1.2-0.6-2.5-0.5-3.7c1.6-15.2,3-30.5,5-45.7
	c1.4-11,10.9-17.1,21.7-15.1c20.9,3.8,41.9,7.5,62.9,11.2c19.4,3.3,38.8,6.5,58.1,9.8c6.2,1.1,10.5,4.6,13.1,10.4
	c0.2,0.5,0.9,0.9,1.4,1.3c0,3.7,0,7.3,0,11c-0.6,1.9-1.5,3.7-1.8,5.6c-4.5,26.9-9,53.8-13.5,80.7c-7.2,43.1-14.6,86.2-21.7,129.3
	c-1.6,10.1-3.3,19.8-14,24.4C715,798.2,711.3,798.2,707.6,798.2z M617.7,727.5c6.2,8.6,12.7,17.7,19.3,26.7c1,1.4,2.7,2.5,4.3,3.1
	c9.9,3.5,19.9,6.6,29.8,10.1c3.1,1.1,4.6,0.6,6.2-2.4c8.6-16.3,17.5-32.6,26.3-48.8c0.9-1.6,1.8-3.1,2.7-4.7
	c0.2,0.1,0.4,0.3,0.6,0.4c-7.7,19.8-15.4,39.6-23.3,59.7c4.4,1.5,8.5,2.5,12.2,4.2c3.4,1.5,6.1,1.1,9.3-0.7
	c5.8-3.3,11.7-6.4,17.8-9.1c4.2-1.8,5.9-4.6,6.6-9c1.7-11.5,3.9-23,5.6-34.5c0.3-2.2,0-4.7-0.9-6.7c-4.6-10.3-9.4-20.6-14.4-30.7
	c-1-1.9-3.2-4-5.2-4.6c-12.3-3.6-24.7-6.9-37.1-10.1c-1.4-0.4-3.8,0.1-4.8,1.1C654.5,689.9,636.4,708.5,617.7,727.5z M699.7,532.1
	c1.3,2.2,2,3.6,2.9,5c8.4,13,16.8,26,25,39.1c1.2,1.9,1.9,4.7,1.7,6.9c-1,10.1-2.3,20.2-3.8,30.2c-0.4,2.5-1.3,5.4-2.9,7.2
	c-7.5,8.3-15.2,16.3-23,24.3c-5.6,5.8-11.4,11.5-17.5,17.7c20.3,6.7,41.6,8.9,59.2,22.4c0.6-3.3,1.1-5.6,1.5-7.9
	c6.8-40.4,13.6-80.7,20.4-121.1c1.2-7.1-2.8-13.3-10.1-14.7c-6.5-1.3-13.1-2.3-19.7-3.4C722.6,535.9,711.6,534.1,699.7,532.1z
	 M620.5,570.7c4.8,3.7,8.8,6.8,12.8,9.9c7.2,5.6,13.6,13,21.7,16.3c8.2,3.3,18,2.6,27.1,3.6c7,0.8,14.1,1.6,21.9,2.5
	c-3.9-20.8-7.6-40.9-11.4-61.4c-11.5,2.8-22.3,6.2-33.4,7.9C643.7,552,633.9,563.5,620.5,570.7z M693.4,532.6c0-0.5-0.1-0.9-0.1-1.4
	c-1.6-0.4-3.2-0.8-4.8-1.1c-18.2-3-36.4-6-54.6-9.1c-9-1.5-14.5,2-16.2,11c-1.6,8.5-2.9,17.1-4.3,25.6c-0.4,2.3-0.7,4.7-1.1,7
	c0.4,0.5,0.8,0.9,1.2,1.4C635.8,544.3,664.3,537.6,693.4,532.6z M706.6,559.9c-0.3,0.2-0.6,0.4-1,0.5c0,0.6,0,1.3,0.1,1.9
	c2.6,13.9,5.2,27.8,7.9,41.7c1.4,7.1-0.6,9.3-7.7,8.4c-3.6-0.5-7.2-0.8-11.5-1.3c2,6.6,3.9,12.7,5.8,18.8
	c11-8.9,19.1-18.7,18.4-33.4c-0.2-3.8,1-7.6,1.4-11.4c0.1-1.4,0.4-3.2-0.3-4.3C715.6,573.8,711.1,566.9,706.6,559.9z M653.2,608.1
	c-6.1-4.4-11.7-8.5-17.6-12.8c-4.4,12.9-8.7,25.6-13,38.3c0.3,0.2,0.5,0.3,0.8,0.5C633.6,625.2,643.8,616.3,653.2,608.1z M614.5,748
	c-5.5-14.7-9.7-17.9-19.8-14.6C601.6,738,606,745.2,614.5,748z M726.3,773.7c-4.7,2.5-8.6,4.7-12.9,7
	C718.9,783.6,725.1,780.4,726.3,773.7z M622.2,647.6c0.2,0.4,0.4,0.8,0.6,1.2c7.3-1.3,9.2-8.7,13.5-13.5
	C631.6,639.4,626.9,643.5,622.2,647.6z"/>
<linearGradient id="SVGID_2_" gradientUnits="userSpaceOnUse" x1="139.6451" y1="719.0208" x2="307.6753" y2="950.2944" gradientTransform="matrix(1 0 0 -1 0 1486)">
	<stop  offset="0" style="stop-color:#EF0A40"/>
	<stop  offset="1" style="stop-color:#950382"/>
</linearGradient>
<path class="st3" d="M125.6,542.2c0.3-0.1,0.8-0.2,0.8-0.4c3.4-8.3,10.4-10.8,18.6-12.2c38.1-6.2,76.2-12.6,114.3-19
	c1.8-0.3,3.6-0.4,5.5-0.4c10.8-0.1,16.4,4.3,18.3,15c3.6,20.3,6.9,40.7,10.3,61.1c7.5,44.7,15,89.3,22.5,134c1.7,10,3.6,20,5.3,30
	c2,11.8-3.8,20.1-15.3,22c-37.6,6.3-75.2,12.7-112.8,19c-1.8,0.3-3.6,0.7-5.4,1.1c-12.6,2.8-21.5-2.9-23.7-15.5
	c-3.9-22.6-7.6-45.3-11.4-68c-7.5-44.7-15-89.3-22.6-134c-1.2-7.3-3-14.6-4.5-21.9C125.6,549.6,125.6,545.9,125.6,542.2z
	 M264.2,712.9c0.3,0,0.6,0,0.9,0c0,0.5,0,1,0,1.4c-1.4,13.9-2.6,27.9-4.2,41.8c-0.4,3.9,0.7,5.6,4.7,5.6c3.3,0,6.7,0.7,10,0.4
	c2.6-0.3,5.5-1.2,7.4-2.8c8.2-7.3,16-15.1,24.2-22.4c3.9-3.4,5.1-6.7,3.9-11.7c-1.5-6-2.1-12.1-3.3-18.2c-0.3-1.6-0.9-3.3-1.9-4.5
	c-10.8-12.7-21.7-25.3-32.8-37.7c-1.5-1.7-4.5-2.8-6.9-2.9c-12.3-0.1-24.7,0.3-37,0.2c-3.7,0-5.7,1.3-7.5,4.4
	c-8.5,15.5-17.3,30.8-26,46.2c-4.1,7.4-8.3,14.7-12.6,22.4c9.9,7.8,19.3,15.4,29,22.8c1.4,1.1,3.7,1.2,5.7,1.3
	c9.8,0.6,19.7,0.7,29.4,1.6c4.6,0.4,6.6-0.9,7.5-5.5C257.7,741.2,261,727.1,264.2,712.9z M212.2,524.4c2,1.9,3.2,3.1,4.6,4.3
	c10.8,9.6,21.8,19.1,32.5,28.9c1.9,1.7,3.4,4.5,3.9,7c1.8,9.7,3.1,19.4,4.4,29.1c0.3,2.7,0.5,5.9-0.6,8.2
	c-4.8,9.9-10,19.6-15.2,29.2c-4.1,7.7-8.6,15.2-13.6,24.1c24.9,0.9,48.8-3,71.9,7.9c-0.2-2.9-0.3-4.4-0.5-5.8
	c-5.1-30.7-10.3-61.4-15.5-92c-2.2-13-4.2-26-6.6-38.9c-1.5-8.2-7.3-11.8-15.2-10.4c-4.1,0.7-8.2,1.3-12.3,2
	C237.6,520.1,225.4,522.2,212.2,524.4z M162.8,738.1c6-1.4,10.8-1.5,13.8-6.8c18.8-33.6,37.8-67,56.5-100.6c0.9-1.6,0.7-4.5-0.3-6.1
	c-3.6-6.2-7.6-12.1-11.6-18.1c-1.5-2.2-2.5-5.5-6.3-4.4c-4.4,1.2-9.7-0.2-12.2,5.7c-5.2,12.3-10.9,24.3-16.3,36.5
	c-0.4,0.8-0.4,1.8-1,4.4c7.8-3.1,14.6-5.7,21.3-8.3c-1.2,2-2.8,3.1-4.5,4.1c-12.2,7.9-24.3,15.8-36.5,23.5c-3,1.9-4.4,4.1-4.5,7.6
	c-0.3,10.3-1.6,20.6-1.4,30.9C160.1,716.9,161.7,727.3,162.8,738.1z M143.7,581.7c1.5,1,2.3,1.9,3.3,2.3c11.6,5.1,23.2,10.1,34.8,15
	c1.4,0.6,3.3,0.6,4.8,0.3c15-2.3,29.9-4.8,44.9-7c3.5-0.5,4.7-1.6,2.9-5.2c-8.5-16.9-17-33.9-25.3-51c-1.5-3-3-3.2-5.8-1.5
	c-8.4,5-16.7,10.5-25.7,14.4C162.1,555.8,154.9,570.4,143.7,581.7z M167.4,763.4c1.4,6.2,2.1,11.8,4,17c2,5.4,7.5,7.5,13.6,6.5
	c25.7-4.3,51.5-8.6,77.2-12.9c7.1-1.2,14.3-2.6,21.4-3.8c0-0.3-0.1-0.6-0.1-0.9C245.2,767.3,206.9,765.4,167.4,763.4z M136.5,577.4
	c0.5,0.3,1,0.7,1.5,1c14.6-25,38.4-38.6,62.9-51.4c-20.1,2.7-39.7,5.8-59.4,9.3c-6.1,1.1-10.6,7-9.8,12.6
	C133.1,558.5,134.9,568,136.5,577.4z M138.3,588.5c5.1,30.5,10.1,59.8,15,89.1c2.4-25.6,3.9-51.1,5.1-76.5c0.1-1.8-1.3-4.7-2.8-5.5
	C150.4,593.1,144.9,591.2,138.3,588.5z M226.4,600.2c4.7,7.2,8.4,12.9,12.1,18.6c0.5-0.1,1-0.1,1.5-0.2c3.7-10,13.2-17.8,9.8-30.5
	c-1.7-6.2-1.8-12.9-3.1-19.2c-0.4-2.3-1.6-4.8-3.3-6.3c-5.4-5.2-11.1-10.1-16.8-15c-0.7-0.6-1.8-0.8-4.2-1.8c1.4,3,2,4.6,2.8,6.1
	c6.3,12.7,12.6,25.3,18.8,38.1c2.6,5.3,1.5,7.2-4.3,8.1C235.8,598.7,231.8,599.3,226.4,600.2z M188.7,608.1
	c-0.8-0.6-1.2-1.2-1.5-1.2c-6.6,1.3-11.8-2.4-17.2-5.1c-4-2-5-0.6-5.2,3.2c-0.5,11.8-1.2,23.6-1.7,35.4c-0.1,1.2,0.3,2.4,0.4,3.6
	c0.5,0.2,1,0.3,1.5,0.5C172.8,632.5,180.7,620.3,188.7,608.1z M188.3,757.5c0.1-0.6,0.2-1.1,0.4-1.7c-2.8-2.8-5.9-5.3-8.2-8.5
	c-3.5-4.8-7.7-5-12.5-2.7c-1.1,0.5-2.9,1.7-2.7,2.1c0.3,1.3,1.3,2.7,2.4,3.3c4.7,2.5,9.5,4.8,14.4,6.8
	C183.9,757.7,186.2,757.3,188.3,757.5z M291.4,761.6c3.7,2.5,6.1,1.7,8.5-0.3c6.4-5.3,13.8-16.4,12.8-19.9
	C305.7,748,298.8,754.6,291.4,761.6z M165,658.5c7.3-1.1,14.9-12.9,14.3-22C174.3,644.3,170,650.9,165,658.5z M304.5,689.6
	c-1.1-9.6-3-11.8-9.6-11.8C298.1,681.6,300.9,685,304.5,689.6z M316.3,757c-0.5-0.5-1-0.9-1.5-1.4c-2.5,3.1-5,6.2-7.5,9.3
	c0.5,0.4,1,0.8,1.6,1.3C311.3,763.2,313.8,760.1,316.3,757z"/>
<linearGradient id="SVGID_3_" gradientUnits="userSpaceOnUse" x1="435.3975" y1="735.2991" x2="606.4196" y2="970.691" gradientTransform="matrix(1 0 0 -1 0 1486)">
	<stop  offset="0" style="stop-color:#4EB6FF"/>
	<stop  offset="1" style="stop-color:#4533B0"/>
</linearGradient>
<path class="st4" d="M451.5,762.4c1.2-4.5,4.1-4.9,7.8-4.5c35.5,3.6,71,7,106.5,10.5c7.7,0.8,11-1,14.5-7.7
	c-0.8,0.1-1.5,0.1-1.8,0.4c-6.1,6.1-13.6,5.2-20.6,3.1c-32-9.3-63.9-19-95.9-28.4c-4.3-1.2-3.6-4-3.5-7c1.4-0.4,2.7-0.8,5.2-1.5
	c-6.9-6.5-5.8-14.5-6.3-22.2c-0.3-3.9,1.1-6.5,3.7-9.3c24.5-25.9,48.8-52,73.3-77.9c2.6-2.7,3-5,1.6-8.4c-2.6-6.5-4.7-13.2-7.1-19.8
	c-1.8-5-12.4-8-15.8-3.9c-9.6,11.4-18.6,23.3-28.8,36.1c9,0.9,16.2-1.8,23.9-1.5c-17.7,6.2-35.4,12.5-53.1,18.7
	c-0.1-7.7-1.3-16.2,1.6-24.9c4.8-14.2,8.7-28.7,13.3-43c1.1-3.5,0.5-5.6-2.5-7.6c-4.5-3-8.9-6.3-13.8-9.8c-0.7,4.3-1.3,7.7-1.9,11.2
	c-0.4,0-0.7,0-1.1-0.1c-0.3-1.2-0.8-2.5-0.7-3.7c0.5-16.6,0.7-33.3,1.8-49.9c0.6-9.5,9.2-15,20.2-14c13.4,1.2,26.9,2.7,40.3,4
	c26,2.6,52.1,5.2,78.1,7.7c5.9,0.6,11.5,1.6,15.6,6.7c4,5,4,10.7,3.4,16.6c-3.3,33.5-6.6,67-10,100.5c-4.1,41.5-8.2,82.9-12.4,124.4
	c-1.2,11.6-8.2,17.9-19.9,16.8c-38-3.6-76-7.5-113.9-11.3C452.8,763,452.3,762.7,451.5,762.4z M544.5,705.3c0.4,0.1,0.8,0.3,1.1,0.4
	c-0.4,1.4-0.8,2.8-1.3,4.2c-4,11.5-8,23-12.2,34.3c-1.4,3.8-0.4,5.6,3.3,6.5c2.9,0.7,5.8,1.5,8.6,2.6c3.2,1.3,5.9,0.9,8.9-0.8
	c8.9-5.2,18-10.1,26.9-15.4c1.8-1.1,3.5-3.6,3.8-5.7c1.2-8.7,2.1-17.5,2.7-26.3c0.2-2.5-0.2-5.4-1.3-7.7
	c-6.3-12.7-12.6-25.3-19.4-37.8c-1.2-2.3-4.1-4.4-6.6-5c-11.6-3-23.4-5.4-35-8.3c-3.6-0.9-5.9-0.3-8.3,2.4
	c-9.3,10.2-18.8,20.2-28.3,30.3c-8.3,8.8-16.6,17.7-25.2,26.7c7.6,9.8,14.9,19.3,22.4,28.6c1.1,1.4,3.3,2.2,5.1,2.8
	c7.9,2.5,16,4.7,23.9,7.1c11.4,3.5,9.4,4.4,15-6.7C534,726.7,539.2,716,544.5,705.3z M590,662.7c0.5-1.8,0.8-2.4,0.8-3
	c4.3-43.4,8.7-86.8,13-130.2c0.7-7.5-3.7-13-11.2-13.9c-10.2-1.3-20.5-2.3-30.8-3.3c-6.8-0.7-13.6-1.2-21.6-1.9
	c9.5,13.8,18.5,26.4,27,39.2c1.7,2.5,2.6,6.1,2.4,9.1c-0.4,9.5-1.3,18.9-2.5,28.3c-0.4,3.3-1.7,6.9-3.8,9.4
	c-8.7,10.2-17.9,20.1-27,30.1c-3.6,4-7.3,8-11.8,12.9C547.3,646.2,570.8,647.6,590,662.7z M459.1,549.4c2.1,1.3,3.4,2,4.6,2.9
	c9.6,7.2,19.1,14.5,28.7,21.7c1,0.8,2.3,1.6,3.5,1.7c15.8,1.4,31.5,2.6,47.3,3.9c2.9,0.2,3.9-1,3.3-3.9
	c-4.2-18.5-8.3-37.1-12.5-55.6c-0.6-2.9-2-3.7-5-2.8c-9.2,2.8-18.4,6.3-27.9,7.8C484.4,527.7,473.9,540.3,459.1,549.4z M527.4,510.5
	c-0.2-0.5-0.4-0.9-0.6-1.4c-0.8-0.2-1.6-0.4-2.4-0.5c-17.9-1.8-35.8-3.7-53.7-5.3c-7.5-0.7-12.8,3.9-13.7,11.5
	c-0.9,7.3-1.5,14.6-2.2,21.9c-0.2,2,0,4,0,6c0.4,0.4,0.8,0.8,1.2,1.2C475.5,523.6,501,516.1,527.4,510.5z M543.3,608
	c4-4.5,6.8-8,9.9-11.1c4.7-4.7,8.1-9.8,7.8-17c-0.2-4.3,0.5-8.7,1.3-12.9c1.3-7,0.1-13-4.7-18.5c-3.4-3.9-6-8.4-8.8-12.7
	c-0.7-1.1-0.9-2.5-1.3-3.7c-0.8,0.6-1.6,1.2-2.4,1.8c0.4,2.2,0.6,4.4,1.1,6.5c2.9,13.2,5.9,26.3,8.8,39.5c1.3,6.1-0.1,7.6-6.2,7.1
	c-4-0.3-8-0.5-13.1-0.8C538.4,593.9,540.6,600.2,543.3,608z M498,584.2c-3.8-1.5-6.7-2.2-9.3-3.7c-2.7-1.6-5-3.8-7.5-5.8
	c-4.1-3.3-4.7-3.1-6.2,1.9c-3.3,11-6.6,22-9.9,33c-0.3,1.2-0.4,2.4-0.6,3.7c0.4,0.3,0.9,0.6,1.3,0.9
	C476.3,604.5,486.8,594.7,498,584.2z M582.7,746.1c-0.4-0.5-0.8-1-1.2-1.4c-6.9,3.9-13.8,7.8-20.7,11.8c0.1,0.6,0.2,1.3,0.2,1.9
	c2.2,0.2,4.9,1.4,6.4,0.5C573.2,755.4,579.4,752.3,582.7,746.1z M481.8,611.8c-0.3-0.4-0.7-0.7-1-1.1c-5.7,5.4-11.5,10.8-17.7,16.7
	C470,628.6,478.1,621.3,481.8,611.8z"/>
<linearGradient id="SVGID_4_" gradientUnits="userSpaceOnUse" x1="289.8185" y1="740.1093" x2="457.4682" y2="970.8594" gradientTransform="matrix(1 0 0 -1 0 1486)">
	<stop  offset="0" style="stop-color:#FCB225"/>
	<stop  offset="1" style="stop-color:#FD644F"/>
</linearGradient>
<path class="st5" d="M320.8,768.4c0.3-4.7,2.9-5.3,6.2-5.4c30.5-1.1,60.9-2.4,91.4-3.6c1.8-0.1,3.6-0.2,5.6-1
	c-3-0.6-5.9-1.2-8.9-1.7c-29.3-4.5-58.6-9.1-87.9-13.4c-4.4-0.6-4.8-3.2-5.1-6.8c1.2-0.3,2.5-0.7,4.1-1.1c-0.3-1-0.3-2-0.8-2.4
	c-7.1-6.1-6.5-15-7.7-23c-0.3-1.9,1.4-4.3,2.7-6.1c20.6-29.1,41.2-58.2,61.9-87.2c2.1-3,2.4-5.2,0.6-8.5c-3.5-6.1-6.4-12.4-9.7-18.6
	c-2.7-5.2-13.7-6.2-16.8-1.1c-7.4,12.1-14.4,24.4-21.5,36.6c-0.3,0.5,0,1.2,0,2.9c7.1-1.9,13.8-3.8,20.6-5.6
	c0.1,0.3,0.3,0.6,0.4,0.9c-16.4,8.4-32.7,16.9-49,25.3c-1.5-7.8-3.5-16.4-1.7-25.7c2.8-14.5,4.7-29.3,7.2-43.9
	c0.5-3.1-0.1-5.1-3-6.5c-4.7-2.3-9.3-4.9-14.4-7.5c-0.2,3.1-0.3,5.4-0.4,7.7c-0.3,0-0.6,0.1-0.9,0.1c-1.3-7.4-2.9-14.8-3.8-22.2
	c-1.2-9.4-2-18.9-2.5-28.3c-0.6-11.3,6.1-18.3,17.4-18.8c40.8-1.7,81.6-3.3,122.4-4.8c11.4-0.4,18.4,6.3,18.9,17.8
	c2.6,67.6,5.2,135.2,7.9,202.8c0.3,8.7,0.9,17.3,1.2,26c0.4,11.2-6.4,18.8-17.6,19.2c-37.3,1.5-74.6,2.9-111.9,4.3
	C324,768.6,322.6,768.4,320.8,768.4z M323.8,711.7c8.8,9.4,17.2,18.4,25.7,27.3c1,1,3,1.2,4.6,1.5c9.9,1.6,19.8,2.9,29.6,4.7
	c4.4,0.8,6.5-0.6,7.6-4.8c0.8-3.2,2-6.3,3.1-9.5c3.4-10.1,6.7-20.1,10.1-30.2c0.7,2.1,0.4,4,0,5.9c-2.4,11.9-4.8,23.8-7.4,35.7
	c-0.8,3.4,0.2,5,3.6,5.5c4,0.5,7.9,1.4,11.9,1.7c1.6,0.1,3.6-0.4,5-1.4c9.2-6.8,18.4-13.7,27.4-20.9c1.6-1.3,2.9-4.1,2.9-6.2
	c0.1-7.8-0.3-15.7-0.8-23.5c-0.1-2.1-0.6-4.4-1.7-6.1c-8.8-12.9-17.7-25.8-26.9-38.5c-1.3-1.8-4.3-3.2-6.6-3.5
	c-11.9-1.4-23.9-2.1-35.8-3.5c-3.8-0.4-6.1,0.5-8.3,3.7c-10,14.4-20.2,28.6-30.3,42.9C332.8,699.2,327.9,706,323.8,711.7z M445,654
	c0.1-2.4,0.3-3.7,0.3-4.9c-1.6-43.8-3.3-87.5-4.9-131.3c-0.3-8.9-5.5-13.8-14.4-13.5c-17.5,0.5-34.9,1.3-52.4,2
	c-0.6,0-1.2,0.2-2.3,0.5c11.9,12.9,23.4,25.2,34.7,37.9c1.8,2,3.1,5.1,3.4,7.8c0.8,9.6,1.1,19.3,1.3,28.9c0.1,2.9-0.2,6.2-1.6,8.6
	c-5.7,9.2-11.8,18.1-17.9,27.1c-4.8,7.1-9.9,14-15.7,22.1C399.6,642.7,423.6,640.9,445,654z M300.1,558.4c0.7,0.7,1.3,1.4,2,1.8
	c11.2,6.3,22.3,12.6,33.5,18.8c1.3,0.7,3.2,0.8,4.8,0.7c14.6-0.7,29.2-1.5,43.9-2.4c1.7-0.1,3.4-0.7,5.5-1.1
	c-1.5-4.2-2.8-7.8-4.1-11.4c-5.5-14.8-11.1-29.6-16.6-44.4c-1.2-3.2-2.4-4.7-6.1-2.8c-5.3,2.7-10.8,5.4-16.4,7.2
	C327.4,530.8,312.8,543,300.1,558.4z M293.9,552.5c12.2-9.6,20.6-21.8,34-27.7c13.2-5.8,26.4-11.5,39.6-17.2c-3.1-0.8-6-0.9-8.9-0.8
	c-17.5,0.7-35,1.3-52.4,2.1c-7.8,0.4-13.3,4.9-13.4,11.5C292.8,530.7,293.5,540.9,293.9,552.5z M390,605.6c5.1-8,9.4-14.7,13.6-21.4
	c0.3-0.5,0.3-1.3,0.2-1.9c-0.5-10,0.9-20.5-2-29.7c-2.2-7-9.9-12.2-15.2-18.1c-0.7-0.7-1.3-1.6-2-2.2c-0.6-0.5-1.3-0.7-3.2-1.7
	c0.8,2.9,1.2,4.7,1.9,6.5c4.7,12.8,9.6,25.6,14.3,38.4c2.4,6.6,1.5,8-5.4,8.5c-3.9,0.3-7.8,0.6-12.7,1.1
	C383,592,386.1,597.9,390,605.6z M312.3,620.9c0.6,0.3,1.2,0.6,1.8,0.9c9-11.1,18.1-22.2,26.7-32.8c-6-2.9-11.5-5.3-16.7-8.1
	c-4.9-2.6-5.5-2.5-6.4,3.3c-1.4,9-2.8,18-4.2,27.1C313.1,614.5,312.8,617.7,312.3,620.9z M448.6,733.7c-7.6,5.8-14.4,11.1-21.5,16.4
	C433,754.3,447.7,743.2,448.6,733.7z M329.3,617.4c-0.4-0.3-0.7-0.6-1.1-0.8c-4.9,6.2-9.9,12.3-15.3,19.1
	C320.1,635.6,327.5,626.7,329.3,617.4z M446.1,678.9c0.6-8-0.5-9.7-7.5-11.4C441.2,671.5,443.2,674.6,446.1,678.9z"/>
<g class="st6">
	<path class="st7" d="M438.6,906.4h-38.8v36.8h-10v-36.8H351v-10h38.6v-36.6H400v36.6h38.6V906.4z"/>
	<path class="st7" d="M564.8,924.3l-17.5,1.2v36.6h-12.8v-36.4h-61.2c-3.9,0-7.1-1.3-9.7-3.9c-2.5-2.6-3.8-5.7-3.8-9.3
		c0-2.3,0.5-4.4,1.4-6.3l41.9-84.3h13.2L475,906c-0.7,1.6-1,2.8-1,3.7c0,1.5,0.6,2.7,1.7,3.7c1.1,0.9,2.7,1.4,4.6,1.4h54.3v-42.9
		l2.6-23.4h10.2v66.3h17.5V924.3z"/>
</g>
<g class="st6">
	<path class="st7" d="M78.7,84.2H58.3v19.2H55V84.2H34.6v-3.5h20.3V61.5h3.6v19.2h20.3V84.2z"/>
	<path class="st7" d="M142.8,93.3l-8.8,0.4v19.9h-4.2V93.8H96.7c-1.7,0-3.2-0.6-4.3-1.7c-1.2-1.2-1.7-2.6-1.7-4.2c0-1,0.2-2.1,0.7-3
		L114,41.4h4.4L95.6,85.2c-0.3,0.7-0.5,1.3-0.5,1.9c0,0.9,0.3,1.6,1,2.2c0.7,0.6,1.5,0.8,2.5,0.8h31.4V67.2l0.9-12.1h3.2v35h8.8
		V93.3z"/>
</g>
<g class="st6">
	<path class="st7" d="M808.9,1398.2h20.4v-19.2h3.3v19.2h20.4v3.5h-20.3v19.2h-3.6v-19.2h-20.3V1398.2z"/>
	<path class="st7" d="M744.8,1389.1l8.8-0.4v-19.9h4.2v19.8h33.2c1.7,0,3.2,0.6,4.3,1.7c1.2,1.2,1.7,2.6,1.7,4.2c0,1-0.2,2.1-0.7,3
		l-22.6,43.4h-4.4l22.8-43.8c0.3-0.7,0.5-1.3,0.5-1.9c0-0.9-0.3-1.6-1-2.2c-0.7-0.6-1.5-0.8-2.5-0.8h-31.4v22.9l-0.9,12.1h-3.2v-35
		h-8.8V1389.1z"/>
</g>
</svg>
