<?xml version="1.0" encoding="utf-8"?>
<!-- Generator: Adobe Illustrator 25.3.1, SVG Export Plug-In . SVG Version: 6.00 Build 0)  -->
<svg version="1.1" id="Calque_1" xmlns="http://www.w3.org/2000/svg" xmlns:xlink="http://www.w3.org/1999/xlink" x="0px" y="0px"
	 viewBox="0 0 889 1486" style="enable-background:new 0 0 889 1486;" xml:space="preserve">
<style type="text/css">
	.st0{fill:url(#SVGID_1_);}
	.st1{fill:url(#SVGID_2_);}
	.st2{fill:#EFEFEF;}
</style>
<g>
	<linearGradient id="SVGID_1_" gradientUnits="userSpaceOnUse" x1="270.8398" y1="983.882" x2="778.8551" y2="284.6588">
		<stop  offset="0" style="stop-color:#3DFA80"/>
		<stop  offset="1" style="stop-color:#217E86"/>
	</linearGradient>
	<path class="st0" d="M855.3,1487.2H34.7c-18.9,0-34.2-15.3-34.2-34.2V35.4c0-18.9,15.3-34.2,34.2-34.2h820.5
		c18.9,0,34.2,15.3,34.2,34.2v1417.5C889.5,1471.8,874.2,1487.2,855.3,1487.2z"/>
</g>
<linearGradient id="SVGID_2_" gradientUnits="userSpaceOnUse" x1="56.9241" y1="1365.6707" x2="850.6882" y2="273.148">
	<stop  offset="0" style="stop-color:#217E86"/>
	<stop  offset="0.9988" style="stop-color:#3DFA80"/>
</linearGradient>
<path class="st1" d="M889.9,1260.1c0,44,0,88,0,132c-1.3-0.2-2.2,0.6-3.1,1.3c-5.1,4.5-10.2,9-15.4,13.5
	c-26.5,22.9-50.5,48.7-79.9,68.1c-7.6,5-15.3,9-24.8,8.9c-13.3-0.2-26.7-0.5-40,0.1c-11.7,0.5-22.8-2.4-34-4.8
	c-12-2.5-23.9-5.7-35.9-8.4c-17.5-3.9-35.1-7.5-52.6-11.3c-18.8-4.1-37.6-8.3-56.4-12.6c-19.4-4.3-38.8-8.8-58.3-13.1
	c-19.9-4.4-39.9-8.7-59.8-13.2c-13-2.9-25.8-6.1-38.8-9c-12.5-2.8-25-5.3-37.5-8.1c-17.4-3.9-34.7-8-52-11.8
	c-22.4-4.9-44.8-9.7-67.2-14.6c-13.9-3.1-27.9-6.1-41.8-9.3c-17.3-4-34.5-8.2-51.9-12.1c-22.5-5-45.2-9.6-67.7-14.5
	c-24-5.3-47.9-10.8-71.9-16.2c0-50.3,0-100.7,0-151c0.6,0.2,1.2,0.5,1.8,0.4c23.7-2.3,47.4-4.8,71.1-7.1c3.1-0.3,5.1-1.5,7-3.9
	c30.3-37.6,60.8-75,91.1-112.7c33.4-41.7,67.9-82.6,100.4-125c8.4-10.9,17.6-21.2,26.4-31.9c73.5-90.2,146.7-180.7,220-271
	c1.8-2.3,1.9-4.1,0.7-6.6c-3.7-7.8-7.1-15.7-10.6-23.5c-18.3-41.6-36.6-83.1-54.8-124.8c-2.1-4.8-4.7-6.6-10-6.6
	c-20.1,0.2-40.3,0-60.5-0.3c-3.9,0-6.2,1-8.4,4.4c-42.9,64.8-86,129.4-129,194.1c-6.4,9.7-12.8,19.3-19.8,29.9
	c66.4-14.7,131.7-29.2,197-43.7c-0.7,1.3-1.7,1.8-2.7,2.3c-32.4,13.9-64.7,27.9-97.1,41.7C241.3,725.2,159,760.4,76.7,795.5
	c-2.8,1.2-4,2.9-4.6,5.8c-3.8,17.9-7.7,35.7-11.6,53.5C49.9,902.9,39.3,951,28.8,999c-8.6,39-17.1,77.9-25.8,116.9
	c-0.2,0.9,0.4,2.9-1.9,2.2c0-72.3,0-144.7,0-217c0.9-0.5,0.8-1.3,1-2.2c3.1-13.8,6.2-27.6,9.3-41.3c23.4-103.5,46.9-207,70.3-310.5
	c12.5-55.4,25-110.9,37.7-166.3c0.9-3.9-0.1-5.5-3.2-7.5c-36-22.7-71.9-45.5-107.8-68.3c-1.7-3.4-4-6.5-3.9-10.6
	c0.2-7.8,0.1-15.7,0.1-23.5c0-4,1.2-7.7,3.4-10.8c3.3-4.7,7.1-9.2,10.9-13.6c9.5-11,21.6-19.2,32.7-28.5
	c31.7-26.6,63.7-52.9,95.6-79.2c8.2-6.8,15.5-14.7,25.2-19.4c14.3-7,28.7-13.7,42.8-21.1c20.8-10.9,43.2-16.9,64.9-25.3
	c14-5.5,28.4-10.1,42.6-15.1c13.9-4.9,27.9-9.8,41.8-14.8c10.8-3.8,21.5-7.8,32.2-11.7c10.5-3.8,20.9-7.6,31.5-11.2
	c11.5-3.9,23.1-7.2,34.5-11.5c13.4-5,26.7-1.4,35.5,9.7c14.9,18.7,30.2,37.1,45.2,55.8c20.8,25.8,41.3,51.7,62.1,77.4
	c23,28.4,46.2,56.8,69.2,85.2c6.4,7.9,12.6,15.8,18.9,23.8c-0.2,5.9-0.3,11.8-0.5,17.6c-0.9,1.3-0.8,2.6-0.1,4
	c-0.3,12.8-0.7,25.6-1,38.5c-0.8,39-1.4,77.9-2.5,116.9c-0.4,14.1-0.4,28.3-1.3,42.5c-0.4,5.7-2.6,10-6,14.3
	c-71,89.9-142,179.8-212.9,269.8c-0.9,1.2-2.5,2.1-2.3,4.3c2.2,0.6,4.5,1.3,6.7,1.7c21,3.6,42,7,63,10.6
	c47.4,8.1,94.8,16.2,142.1,24.5c19.6,3.4,39.6,5.2,57.5,15.2c4.8,2.7,10,4.5,15,6.8c34.5,15.8,70.2,29.2,102.7,49.5
	c11.6,7.3,23.5,14.3,35.9,20.4c0,39.3,0,78.7,0,118c-2.4,0.8-3.3-1.5-4.6-2.6c-24-19.2-47.9-38.6-71.9-57.8
	c-1.5-1.2-2.6-3.2-5.1-2.4c18.3,30.4,36.5,60.9,54.9,91.2c8.9,14.6,17.1,29.5,26.8,43.6c0,30,0,60,0,90c-2.5,1.2-2.5-1.4-3-2.4
	c-27.7-45.3-55.3-90.6-82.9-135.9c-36.4-59.8-72.9-119.6-109.2-179.5c-2.5-4.2-5.2-6.9-10.6-7.5c-10.6-1.1-21-3.2-31.6-4.9
	c-72.1-11.7-144.2-23.3-216.3-35.2c-4-0.7-6.2,0.1-8.8,3.2c-97.5,120-195,239.8-292.6,359.7c-2,2.5-2.4,4.1,0,6.7
	c46.7,50.8,93.3,101.6,139.9,152.4c1.4,1.6,3,2.5,5,3c8.6,2,17.2,4,25.8,6c62.2,14.2,124.5,28.4,186.7,42.8c3.8,0.9,5.4,0.3,7-3.5
	c29.9-73.9,59.9-147.8,89.9-221.7c17-41.9,34-83.8,51-125.6c0.7-1.7,0.8-3.9,3.2-4.9c1.3,2.5-0.1,4.5-0.6,6.4
	c-22.7,84.8-45.5,169.5-68.3,254.3c-9.3,34.5-18.5,69-27.9,103.5c-1,3.5-0.2,4.4,3.3,5.2c31.6,7.1,63.2,14.3,94.8,21.6
	c3.1,0.7,5.5,0.2,8.3-1.6c64.4-43.5,128.9-86.9,193.3-130.3C860.8,1279.3,875.3,1269.8,889.9,1260.1z M554.4,171.7
	c-0.6-2.8-2.3-4.6-4.8-5.9c-0.1-0.2-0.3-0.4-0.5-0.6c-0.9-3.7-3.6-6.2-6.1-8.8c-0.8-0.9-1.7-1.9-3-1.2c-1.6,0.8-1,2.3-0.6,3.5
	c0.9,2.8,2.1,5.6,3,8.5c6.1,20.2,12.1,40.4,18.2,60.7c9.3,30.9,18.5,61.8,27.8,92.7c9.4,31.2,18.7,62.4,28.2,93.6
	c3.2,10.5,6.2,20.7,3.5,32.1c-1.5,6.5-3.8,11-9.3,14.8c-5.5,3.8-10.8,5.8-17.5,5.2c-7.4-0.7-15-0.7-22.5-0.3
	c-7.5,0.4-14.9-0.7-22.4-0.7c-10.1,0-20.2-0.2-30.2-0.5c-2.3-0.1-4.9-1.3-6.5,0.9c-1.5,2,0.2,4.1,1,6.1
	c13.7,32.2,27.5,64.5,41.3,96.7c0.7,1.7,1,3.8,3.2,4.1c2.1,0.3,2.5-1.8,3.5-3.1c13.5-18.1,27-36.2,40.4-54.5
	c3.5-4.8,8-8.8,10.1-14.5c0.2-0.1,0.4-0.3,0.4-0.6c1,0.1,1.6-0.5,2-1.1c8-10.9,16-21.7,23.9-32.6c1.1-1.5,1.8-3.3,1.5-5.2
	c-1-6.5,0-12.9,0.1-19.4c0.4-19.6,0.2-39.3,1.2-58.9c0.4-8.6-0.1-17.2,0.7-25.8c0.9-8.9,0.8-17.9,0.8-26.9c0-10.8,0.2-21.5,0.4-32.2
	c0.1-6.2,1.7-13.1-0.9-18.2c-3.9-7.8-9.9-14.8-16.7-20.6c-0.1-0.3-0.3-0.4-0.5-0.6c-2.6-5.6-7.2-9.7-10.8-14.5
	c-2.7-3.5-4.5-7.8-8.7-9.9c-0.1-0.3-0.2-0.5-0.4-0.6c0.4-1.4-0.8-2.1-1.5-2.9c-14.7-18.3-29.4-36.6-44.1-54.8
	c-1.1-1.4-1.8-3.3-3.9-3.6L554.4,171.7z M108.1,650.2c2-0.7,3-2.5,4.3-4c54.8-59.6,109.5-119.3,164.2-179c1.5-1.6,2.9-3.4,4.3-5.1
	c-0.2-0.5-0.4-1.1-0.6-1.6c-11.1,0-22.2-0.1-33.3,0c-3.5,0-6.3-1.2-9.2-3.1c-26.1-17.4-52.3-34.8-78.6-52.2
	c-0.4,1.7-0.9,3.2-1.2,4.8c-12.6,59.2-25.2,118.4-37.7,177.6c-4.3,20.7-9.5,41.1-12.8,62c-0.1,0.4-0.3,1.1-0.2,1.2
	C108.1,651.2,108,650.6,108.1,650.2z M561.1,414.5c-0.6-2.3-1-4.1-1.6-5.8c-18.2-60.5-36.4-120.9-54.6-181.4
	c-15.9-53-31.9-106-47.7-159c-0.9-2.9-1.5-4.4-5.2-3c-65.8,24.7-131.4,50-197.5,73.6c-19.9,7.1-39.3,15.5-59,23.1
	c-5.1,1.9-9.4,4.7-13.4,8.3c-39.3,35.2-78.6,70.5-118.7,104.9c-3.6,3.1-2.6,4.6,0.6,6.6c5.4,3.3,10.9,6.4,16.2,9.9
	c59.7,39.8,119.3,79.6,178.9,119.4c2.5,1.6,4.9,2.4,7.9,2.4c90.9,0.3,181.9,0.7,272.8,1C546.8,414.5,553.7,414.5,561.1,414.5z
	 M143.2,1307.5c-1.5-2.7-2.2-4.3-3.2-5.8c-20.5-28-41.1-56-61.6-84.1c-1.3-1.8-2.6-2.6-4.9-2.3c-21.3,2.6-42.6,5.1-63.9,7.6
	c-2.3,0.3-5.5,0.3-6.1,2.4c-0.7,2.4,2.4,3.6,4.2,4.9c31.4,23,62.8,45.9,94.2,68.8c1.3,1,2.5,2.1,4.3,2.4
	C118.2,1303.4,130.1,1305.3,143.2,1307.5z M887,1322.3c-5.2,2.7-10.3,4.7-14.8,7.7c-11.8,7.7-23.4,15.8-35.1,23.7
	c-30.5,20.5-61,40.9-91.5,61.4c-7.6,5.1-15.2,10.1-22.7,15.2c-1,0.7-2.6,1.4-2,3c0.4,1.2,1.9,1.1,3,1.3c2.6,0.4,5.4,0.6,7.8,1.5
	c14,5.2,25.5-0.1,36-8.6c9.4-7.6,18.2-16.1,27.4-24c22.4-19.3,44.8-38.7,67.4-57.8C871,1338.4,879.1,1330.7,887,1322.3z M215.4,614
	c-0.4-0.4-0.9-0.8-1.3-1.2c-37.6,40.5-75.3,80.9-113.7,122.1c3.9,0.2,6.4,0.1,8.9-1c11.2-5,22.5-9.9,33.8-14.6c2.9-1.2,5-3,6.7-5.6
	c18.9-28.8,37.8-57.4,56.8-86.2C209.5,623.1,212.4,618.5,215.4,614z"/>
<path class="st2" d="M268.8,501c15,26,29.9,52.1,44.8,78.1c4.6,7.9,3.3,10.1-6.1,10.1c-8.4,0-16.8,0.3-25.2-0.1
	c-5.3-0.3-6.8,1.2-6.8,6.7c0.2,54.4,0.1,108.8,0.1,163.2c0,37.4-0.2,74.9,0,112.3c0.2,32.3,21.5,57.5,52.9,62.9
	c5.1,0.7,10.3,1,15.5,0.8c80.1,0,160,0.1,240-0.2c7.5,0,12.9,1.2,15.3,8.9c0.6,2,2.7,3.4,2.7,5.7c-2,1.2-4.2,0.6-6.2,0.6
	c-85.2,0-170.3,0-255.5,0c-45.5,0-79.4-34-79.5-79.5c0-91.4,0.1-182.8,0.2-274.2c0-6.2-1.9-7.5-7.5-7.2c-9.9,0.4-19.8,0-29.7,0.2
	c-2.8,0.1-5.5-0.5-7.9-1.9v-5.2c5.3-12.9,13.3-24.5,20.1-36.7c7.2-12.9,14.9-25.7,22.2-38.6c1.4-2.5,2.9-4.8,5.5-6.1L268.8,501z"/>
<path class="st2" d="M643.1,985c-12.9-20-24-41.2-36.2-61.7c-3.6-6.1-7.2-12.2-10.6-18.5c-3.1-5.6-1.3-8.6,5-8.7
	c9.5-0.1,18.9-0.2,28.4,0c3.9,0.1,5.6-0.5,5.6-5.2c-0.2-92.7,0-185.4-0.2-278.1c-0.1-35.5-28.1-62.6-64.3-62.7
	c-80.4-0.2-160.9-0.3-241.3,0.3c-11.4,0.1-17.6-3.4-20.4-14.3c1.7-1.1,3.9-0.4,5.8-0.4c86.2,0,172.5,0,258.7,0
	c41.3,0,76,33.8,76.3,75.1c0.4,56.3,0.1,112.7,0.1,169c0,36.6,0.1,73.1-0.1,109.7c0,5.5,1.6,6.8,6.8,6.6c10.1-0.4,20.2,0,30.3-0.2
	c2.9,0,5.5,0.3,7.7,2.4v5.2c-1.7,6.5-5.7,11.8-9,17.5c-11,19.3-22.3,38.4-33.2,57.8c-1.2,2.5-3.1,4.6-5.6,6L643.1,985z"/>
<path class="st2" d="M50.6,51.9c4.5,7.9,9,15.7,13.5,23.6c1.4,2.4,1,3.1-1.8,3.1c-2.5,0-5.1,0.1-7.6,0c-1.6-0.1-2.1,0.4-2.1,2
	c0.1,16.4,0,32.9,0,49.3c0,11.3-0.1,22.6,0,33.9c0.1,9.7,6.5,17.4,16,19c1.5,0.2,3.1,0.3,4.7,0.2c24.2,0,48.3,0,72.5,0
	c2.3,0,3.9,0.4,4.6,2.7c0.2,0.6,0.8,1,0.8,1.7c-0.6,0.4-1.3,0.2-1.9,0.2c-25.7,0-51.4,0-77.2,0c-13.7,0-24-10.3-24-24
	c0-27.6,0-55.2,0-82.8c0-1.9-0.6-2.3-2.3-2.2c-3,0.1-6,0-9,0.1c-0.8,0-1.7-0.2-2.4-0.6v-1.6c1.6-3.9,4-7.4,6.1-11.1
	c2.2-3.9,4.5-7.8,6.7-11.7c0.4-0.7,0.9-1.4,1.7-1.8L50.6,51.9z"/>
<path class="st2" d="M163.6,198.1c-3.9-6-7.2-12.4-10.9-18.6c-1.1-1.8-2.2-3.7-3.2-5.6c-0.9-1.7-0.4-2.6,1.5-2.6
	c2.9,0,5.7-0.1,8.6,0c1.2,0,1.7-0.2,1.7-1.6c0-28,0-56-0.1-84c0-10.7-8.5-18.9-19.4-18.9c-24.3,0-48.6-0.1-72.9,0.1
	c-3.4,0-5.3-1-6.2-4.3c0.5-0.3,1.2-0.1,1.8-0.1c26,0,52.1,0,78.1,0c12.5,0,22.9,10.2,23,22.7c0.1,17,0,34,0,51c0,11,0,22.1,0,33.1
	c0,1.7,0.5,2.1,2.1,2c3-0.1,6.1,0,9.2,0c0.9,0,1.7,0.1,2.3,0.7v1.6c-0.5,2-1.7,3.6-2.7,5.3c-3.3,5.8-6.7,11.6-10,17.5
	c-0.4,0.8-0.9,1.4-1.7,1.8L163.6,198.1z"/>
<path class="st2" d="M728.9,1289.8c4.5,7.9,9,15.7,13.5,23.6c1.4,2.4,1,3.1-1.8,3.1c-2.5,0-5.1,0.1-7.6,0c-1.6-0.1-2.1,0.4-2.1,2
	c0.1,16.4,0,32.9,0,49.3c0,11.3-0.1,22.6,0,33.9c0.1,9.7,6.5,17.4,16,19c1.5,0.2,3.1,0.3,4.7,0.2c24.2,0,48.3,0,72.5,0
	c2.3,0,3.9,0.4,4.6,2.7c0.2,0.6,0.8,1,0.8,1.7c-0.6,0.4-1.3,0.2-1.9,0.2c-25.7,0-51.4,0-77.2,0c-13.7,0-24-10.3-24-24
	c0-27.6,0-55.2,0-82.8c0-1.9-0.6-2.3-2.3-2.2c-3,0.1-6,0-9,0.1c-0.8,0-1.7-0.2-2.4-0.6v-1.6c1.6-3.9,4-7.4,6.1-11.1
	c2.2-3.9,4.5-7.8,6.7-11.7c0.4-0.7,0.9-1.4,1.7-1.8L728.9,1289.8z"/>
<path class="st2" d="M841.9,1436c-3.9-6-7.2-12.4-10.9-18.6c-1.1-1.8-2.2-3.7-3.2-5.6c-0.9-1.7-0.4-2.6,1.5-2.6c2.9,0,5.7-0.1,8.6,0
	c1.2,0,1.7-0.2,1.7-1.6c0-28,0-56-0.1-84c0-10.7-8.5-18.9-19.4-18.9c-24.3,0-48.6-0.1-72.9,0.1c-3.4,0-5.3-1-6.2-4.3
	c0.5-0.3,1.2-0.1,1.8-0.1c26,0,52.1,0,78.1,0c12.5,0,22.9,10.2,23,22.7c0.1,17,0,34,0,51c0,11,0,22.1,0,33.1c0,1.7,0.5,2.1,2.1,2
	c3-0.1,6.1,0,9.2,0c0.9,0,1.7,0.1,2.3,0.7v1.6c-0.5,2-1.7,3.6-2.7,5.3c-3.3,5.8-6.7,11.6-10,17.5c-0.4,0.8-0.9,1.4-1.7,1.8
	L841.9,1436z"/>
</svg>
