<?xml version="1.0" encoding="utf-8"?>
<!-- Generator: Adobe Illustrator 25.3.1, SVG Export Plug-In . SVG Version: 6.00 Build 0)  -->
<svg version="1.1" id="Calque_1" xmlns="http://www.w3.org/2000/svg" xmlns:xlink="http://www.w3.org/1999/xlink" x="0px" y="0px"
	 viewBox="0 0 889 1486" style="enable-background:new 0 0 889 1486;" xml:space="preserve">
<style type="text/css">
	.st0{fill:url(#SVGID_1_);}
	.st1{fill:url(#SVGID_2_);}
	.st2{fill:#EFEFEF;}
	.st3{enable-background:new    ;}
</style>
<g>
	
		<linearGradient id="SVGID_1_" gradientUnits="userSpaceOnUse" x1="270.127" y1="502.6648" x2="778.1423" y2="1201.8878" gradientTransform="matrix(1 0 0 -1 0 1486)">
		<stop  offset="0" style="stop-color:#EF0A40"/>
		<stop  offset="1" style="stop-color:#950382"/>
	</linearGradient>
	<path class="st0" d="M854.6,1486.6H34c-18.9,0-34.2-15.3-34.2-34.2V34.9C-0.2,16,15.1,0.6,34,0.6h820.5c18.9,0,34.2,15.3,34.2,34.2
		v1417.5C888.8,1471.3,873.5,1486.6,854.6,1486.6z"/>
</g>
<linearGradient id="SVGID_2_" gradientUnits="userSpaceOnUse" x1="56.2063" y1="120.809" x2="850.0637" y2="1213.4598" gradientTransform="matrix(1 0 0 -1 0 1486)">
	<stop  offset="0" style="stop-color:#950382"/>
	<stop  offset="0.1847" style="stop-color:#9E047B"/>
	<stop  offset="0.4918" style="stop-color:#B80668"/>
	<stop  offset="0.8811" style="stop-color:#E1094A"/>
	<stop  offset="1" style="stop-color:#EF0A40"/>
</linearGradient>
<path class="st1" d="M889.2,1259.6c0,44,0,88,0,132c-1.3-0.2-2.2,0.6-3.1,1.3c-5.1,4.5-10.2,9-15.4,13.5
	c-26.5,22.9-50.5,48.7-79.9,68.1c-7.6,5-15.3,9-24.8,8.9c-13.3-0.2-26.7-0.5-40,0.1c-11.7,0.5-22.8-2.4-34-4.8
	c-12-2.5-23.9-5.7-35.9-8.4c-17.5-3.9-35.1-7.5-52.6-11.3c-18.8-4.1-37.6-8.3-56.4-12.6c-19.4-4.3-38.8-8.8-58.3-13.1
	c-19.9-4.4-39.9-8.7-59.8-13.2c-13-2.9-25.8-6.1-38.8-9c-12.5-2.8-25-5.3-37.5-8.1c-17.4-3.9-34.7-8-52-11.8
	c-22.4-4.9-44.8-9.7-67.2-14.6c-13.9-3.1-27.9-6.1-41.8-9.3c-17.3-4-34.5-8.2-51.9-12.1c-22.5-5-45.2-9.6-67.7-14.5
	c-24-5.3-47.9-10.8-71.9-16.2c0-50.3,0-100.7,0-151c0.6,0.2,1.2,0.5,1.8,0.4c23.7-2.3,47.4-4.8,71.1-7.1c3.1-0.3,5.1-1.5,7-3.9
	c30.3-37.6,60.8-75,91.1-112.7c33.4-41.7,67.9-82.6,100.4-125c8.4-10.9,17.6-21.2,26.4-31.9c73.5-90.2,146.7-180.7,220-271
	c1.8-2.3,1.9-4.1,0.7-6.6c-3.7-7.8-7.1-15.7-10.6-23.5c-18.3-41.6-36.6-83.1-54.8-124.8c-2.1-4.8-4.7-6.6-10-6.6
	c-20.1,0.2-40.3,0-60.5-0.3c-3.9,0-6.2,1-8.4,4.4c-42.9,64.8-86,129.4-129,194.1c-6.4,9.7-12.8,19.3-19.8,29.9
	c66.4-14.7,131.7-29.2,197-43.7c-0.7,1.3-1.7,1.8-2.7,2.3c-32.4,13.9-64.7,27.9-97.1,41.7C240.6,724.6,158.3,759.9,76,795
	c-2.8,1.2-4,2.9-4.6,5.8c-3.8,17.9-7.7,35.7-11.6,53.5c-10.5,48.1-21.1,96.1-31.7,144.2c-8.6,39-17.1,77.9-25.8,116.9
	c-0.2,0.9,0.4,2.9-1.9,2.2c0-72.3,0-144.7,0-217c0.9-0.5,0.8-1.3,1-2.2c3.1-13.8,6.2-27.6,9.3-41.3c23.4-103.5,46.9-207,70.3-310.5
	c12.5-55.4,25-110.9,37.7-166.3c0.9-3.9-0.1-5.5-3.2-7.5c-36-22.7-71.9-45.5-107.8-68.3c-1.7-3.4-4-6.5-3.9-10.6
	c0.2-7.8,0.1-15.7,0.1-23.5c0-4,1.2-7.7,3.4-10.8c3.3-4.7,7.1-9.2,10.9-13.6c9.5-11,21.6-19.2,32.7-28.5
	c31.7-26.6,63.7-52.9,95.6-79.2c8.2-6.8,15.5-14.7,25.2-19.4c14.3-7,28.7-13.7,42.8-21.1c20.8-10.9,43.2-16.9,64.9-25.3
	c14-5.5,28.4-10.1,42.6-15.1c13.9-4.9,27.9-9.8,41.8-14.8c10.8-3.8,21.5-7.8,32.2-11.7c10.5-3.8,20.9-7.6,31.5-11.2
	c11.5-3.9,23.1-7.2,34.5-11.4c13.4-5,26.7-1.4,35.5,9.6c14.9,18.7,30.2,37.1,45.2,55.8c20.8,25.8,41.3,51.7,62.1,77.4
	c23,28.4,46.2,56.8,69.2,85.2c6.4,7.9,12.6,15.8,18.9,23.8c-0.2,5.9-0.3,11.8-0.5,17.6c-0.9,1.3-0.8,2.6-0.1,4
	c-0.3,12.8-0.7,25.6-1,38.5c-0.8,39-1.4,77.9-2.5,116.9c-0.4,14.1-0.4,28.3-1.3,42.5c-0.4,5.7-2.6,10-6,14.3
	c-71,89.9-142,179.8-212.9,269.7c-0.9,1.2-2.5,2.1-2.3,4.3c2.2,0.6,4.5,1.3,6.7,1.7c21,3.6,42,7,63,10.6
	c47.4,8.1,94.8,16.2,142.1,24.5c19.6,3.4,39.6,5.2,57.5,15.2c4.8,2.7,10,4.5,15,6.8c34.5,15.8,70.2,29.2,102.7,49.5
	c11.6,7.3,23.5,14.3,35.9,20.4c0,39.3,0,78.7,0,118c-2.4,0.8-3.3-1.5-4.6-2.6c-24-19.2-47.9-38.6-71.9-57.8
	c-1.5-1.2-2.6-3.2-5.1-2.4c18.3,30.4,36.5,60.9,54.9,91.2c8.9,14.6,17.1,29.5,26.8,43.6c0,30,0,60,0,90c-2.5,1.2-2.5-1.4-3-2.4
	c-27.7-45.3-55.3-90.6-82.9-135.9c-36.4-59.8-72.9-119.6-109.2-179.5c-2.5-4.2-5.2-6.9-10.6-7.5c-10.6-1.1-21-3.2-31.6-4.9
	c-72.1-11.7-144.2-23.3-216.3-35.2c-4-0.7-6.2,0.1-8.8,3.2c-97.5,120-195,239.8-292.6,359.7c-2,2.5-2.4,4.1,0,6.7
	c46.7,50.8,93.3,101.6,139.9,152.4c1.4,1.6,3,2.5,5,3c8.6,2,17.2,4,25.8,6c62.2,14.2,124.5,28.4,186.7,42.8c3.8,0.9,5.4,0.3,7-3.5
	c29.9-73.9,59.9-147.8,89.9-221.7c17-41.9,34-83.8,51-125.6c0.7-1.7,0.8-3.9,3.2-4.9c1.3,2.5-0.1,4.5-0.6,6.4
	c-22.7,84.8-45.5,169.5-68.3,254.3c-9.3,34.5-18.5,69-27.9,103.5c-1,3.5-0.2,4.4,3.3,5.2c31.6,7.1,63.2,14.3,94.8,21.6
	c3.1,0.7,5.5,0.2,8.3-1.6c64.4-43.5,128.9-86.9,193.3-130.3C860.1,1278.8,874.6,1269.2,889.2,1259.6z M553.7,171.1
	c-0.6-2.8-2.3-4.6-4.8-5.9c-0.1-0.2-0.3-0.4-0.5-0.6c-0.9-3.7-3.6-6.2-6.1-8.8c-0.8-0.9-1.7-1.9-3-1.2c-1.6,0.8-1,2.3-0.6,3.5
	c0.9,2.8,2.1,5.6,3,8.5c6.1,20.2,12.1,40.4,18.2,60.7c9.3,30.9,18.5,61.8,27.8,92.7c9.4,31.2,18.7,62.4,28.2,93.6
	c3.2,10.5,6.2,20.7,3.5,32.1c-1.5,6.5-3.8,11-9.3,14.8s-10.8,5.8-17.5,5.2c-7.4-0.7-15-0.7-22.5-0.3c-7.5,0.4-14.9-0.7-22.4-0.7
	c-10.1,0-20.2-0.2-30.2-0.5c-2.3-0.1-4.9-1.3-6.5,0.9c-1.5,2,0.2,4.1,1,6.1c13.7,32.2,27.5,64.4,41.3,96.7c0.7,1.7,1,3.8,3.2,4.1
	c2.1,0.3,2.5-1.8,3.5-3.1c13.5-18.1,27-36.2,40.4-54.5c3.5-4.7,8-8.8,10.1-14.5c0.2-0.1,0.4-0.3,0.4-0.6c1,0.1,1.6-0.5,2-1.1
	c8-10.9,16-21.7,23.9-32.6c1.1-1.5,1.8-3.3,1.5-5.2c-1-6.5,0-12.9,0.1-19.4c0.4-19.6,0.2-39.3,1.2-58.9c0.4-8.6-0.1-17.2,0.7-25.8
	c0.9-8.9,0.8-17.9,0.8-26.9c0-10.8,0.2-21.5,0.4-32.2c0.1-6.2,1.7-13.1-0.9-18.2c-3.9-7.8-9.9-14.8-16.7-20.6
	c-0.1-0.3-0.3-0.4-0.5-0.6c-2.6-5.6-7.2-9.8-10.8-14.6c-2.7-3.5-4.5-7.8-8.7-9.9c-0.1-0.3-0.2-0.5-0.4-0.6c0.4-1.4-0.8-2.1-1.5-2.9
	c-14.7-18.3-29.4-36.6-44.1-54.8c-1.1-1.4-1.8-3.3-3.9-3.6L553.7,171.1z M107.4,649.7c2-0.7,3-2.5,4.3-4
	c54.8-59.6,109.5-119.3,164.2-178.9c1.5-1.6,2.9-3.4,4.3-5.1c-0.2-0.5-0.4-1.1-0.6-1.6c-11.1,0-22.2-0.1-33.3,0
	c-3.5,0-6.3-1.2-9.2-3.1c-26.1-17.4-52.3-34.8-78.6-52.2c-0.4,1.7-0.9,3.2-1.2,4.8c-12.6,59.2-25.2,118.4-37.7,177.6
	c-4.3,20.7-9.5,41.1-12.8,62c-0.1,0.4-0.3,1.1-0.2,1.2C107.4,650.7,107.3,650.1,107.4,649.7z M560.4,414c-0.6-2.3-1-4.1-1.6-5.8
	c-18.2-60.5-36.4-120.9-54.6-181.4c-15.9-53-31.9-106-47.7-159c-0.9-2.9-1.5-4.4-5.2-3c-65.8,24.7-131.4,50-197.5,73.6
	c-19.9,7.1-39.3,15.5-59,23.1c-5.1,1.9-9.4,4.7-13.4,8.3c-39.3,35.2-78.6,70.5-118.7,104.9c-3.6,3.1-2.6,4.6,0.6,6.6
	c5.4,3.3,10.9,6.4,16.2,9.9c59.7,39.8,119.3,79.6,178.9,119.4c2.5,1.6,4.9,2.4,7.9,2.4c90.9,0.3,181.9,0.7,272.8,1
	C546.1,414,553,414,560.4,414z M142.5,1306.9c-1.5-2.7-2.2-4.3-3.2-5.8c-20.5-28-41.1-56-61.6-84.1c-1.3-1.8-2.6-2.6-4.9-2.3
	c-21.3,2.6-42.6,5.1-63.9,7.6c-2.3,0.3-5.5,0.3-6.1,2.4c-0.7,2.4,2.4,3.6,4.2,4.9c31.4,23,62.8,45.9,94.2,68.8
	c1.3,1,2.5,2.1,4.3,2.4C117.5,1302.8,129.4,1304.8,142.5,1306.9z M886.3,1321.8c-5.2,2.7-10.3,4.7-14.8,7.7
	c-11.8,7.7-23.4,15.8-35.1,23.7c-30.5,20.5-61,40.9-91.5,61.4c-7.6,5.1-15.2,10.1-22.7,15.2c-1,0.7-2.6,1.4-2,3
	c0.4,1.2,1.9,1.1,3,1.3c2.6,0.4,5.4,0.6,7.8,1.5c14,5.2,25.5-0.1,36-8.6c9.4-7.6,18.2-16.1,27.4-24c22.4-19.3,44.8-38.7,67.4-57.8
	C870.3,1337.8,878.4,1330.2,886.3,1321.8z M214.7,613.4c-0.4-0.4-0.9-0.8-1.3-1.2c-37.6,40.5-75.3,80.9-113.7,122.1
	c3.9,0.2,6.4,0.1,8.9-1c11.2-5,22.5-9.9,33.8-14.6c2.9-1.2,5-3,6.7-5.6c18.9-28.8,37.8-57.4,56.8-86.2
	C208.8,622.5,211.7,618,214.7,613.4z"/>
<path class="st2" d="M398.7,744.1c0-44,0-87.9,0-131.9c0-23.2,15-38.2,38.2-38.2c44.3,0,88.6,0,132.9,0c22.6,0,37.8,15.1,37.8,37.6
	c0,88.8,0,177.6,0,266.4c0,22.2-15.2,37.4-37.4,37.5c-44.8,0-89.6,0-134.5,0c-21.8,0-37-15.4-37-37.3
	C398.7,833.4,398.7,788.7,398.7,744.1z M599.5,744.7c0-44.3,0-88.6,0-133c0-18.1-11.5-29.6-29.5-29.6c-44.5,0-89,0-133.5,0
	c-18.1,0-29.6,11.5-29.6,29.6c0,88.6,0,177.3,0,265.9c0,18.1,11.5,29.6,29.5,29.6c44.3,0,88.6,0,133,0c18.8,0,30.1-11.3,30.1-30.1
	C599.5,833,599.5,788.8,599.5,744.7z"/>
<path class="st2" d="M508.6,567.6c-2.9,0-5.2,0-8,0c0-2.1,0-3.9,0-5.7c0-43.6,0-87.3,0-130.9c0-19.1-11.3-30.3-30.5-30.3
	c-44,0-88,0-131.9,0c-18.8,0-30.2,11.3-30.2,30c0,88.3,0,176.6,0,264.9c0,19.1,11.3,30.2,30.5,30.2c17.8,0,35.6,0,53.8,0
	c0,2.7,0,5.2,0,8.2c-6.3,0-12.5,0-18.8,0c-12.4,0-24.8,0-37.2,0c-20.9-0.1-36.4-15.5-36.4-36.4c-0.1-89.5,0-179,0-268.5
	c0-20.9,15.4-36.5,36.3-36.5c45.5-0.1,91-0.1,136.5,0c20.1,0,36,15.4,36,35.2c0.2,45.7,0.1,91.4,0,137
	C508.8,565.6,508.7,566.4,508.6,567.6z"/>
<g class="st3">
	<path class="st2" d="M435.2,1018.3h-39v36.9h-10v-36.9h-39v-10h38.8v-36.7h10.4v36.7h38.8V1018.3z"/>
	<path class="st2" d="M526.1,933.3c6,1.6,10.7,4.5,14,8.8c3.3,4.3,4.9,10.4,4.9,18.5c0,8.8-2,17.1-5.9,24.9
		c-3.9,7.8-10.7,17.1-20.4,27.9l-42.8,48.5c5-0.3,12.9-0.4,23.5-0.4h51.2v12.6h-91v-8.2c0-2.6,0.7-4.6,2-6.1l43.7-49.8
		c9.1-10.2,15.7-19.1,19.9-26.7c4.1-7.6,6.2-14.9,6.2-21.8c0-5.4-1.2-9.5-3.5-12.2c-2.3-2.7-5.5-4.5-9.6-5.3
		c-4.1-0.8-9.5-1.2-16.3-1.2c-6.9,0-13.3,0.3-19.1,0.8c-5.8,0.5-12.8,1.6-21.1,3.1l-1.2-10.4c9.1-2.2,16.7-3.6,22.8-4.3
		c6.1-0.7,12.5-1,19.2-1C512.2,931,520,931.8,526.1,933.3z"/>
</g>
<g class="st3">
	<path class="st2" d="M69.2,68.5H52.1v16.1h-2.8V68.5H32.2v-2.9h17V49.5h3v16.1h17V68.5z"/>
	<path class="st2" d="M108.2,32.6c2.5,0.6,4.5,1.9,5.8,3.6c1.4,1.8,2.1,4.4,2.1,7.8c0,3.9-0.9,7.5-2.7,10.9
		c-1.8,3.4-4.8,7.6-9.1,12.6L84.7,89.9c2.2-0.1,5.6-0.1,10.3-0.1h23.7v3.3H80.1V91c0-0.7,0.2-1.3,0.6-1.8l20.2-23.1
		c4-4.5,6.9-8.4,8.7-11.8c1.8-3.4,2.7-6.7,2.7-10c0-2.7-0.6-4.7-1.7-6c-1.1-1.3-2.6-2.2-4.6-2.7c-1.9-0.4-4.5-0.7-7.7-0.7
		c-2.9,0-5.6,0.1-8.1,0.4s-5.5,0.7-9.1,1.4L80.6,34c3.9-0.9,7.1-1.6,9.6-1.9c2.5-0.3,5.1-0.5,7.9-0.5
		C102.3,31.6,105.6,32,108.2,32.6z"/>
</g>
<g class="st3">
	<path class="st2" d="M821,1414.3h17.1v-16.1h2.8v16.1H858v2.9h-17v16.1h-3v-16.1h-17V1414.3z"/>
	<path class="st2" d="M782,1450.2c-2.5-0.6-4.5-1.9-5.8-3.6c-1.4-1.8-2.1-4.4-2.1-7.8c0-3.9,0.9-7.5,2.7-10.9s4.8-7.6,9.1-12.6
		l19.5-22.4c-2.2,0.1-5.6,0.1-10.3,0.1h-23.7v-3.3h38.5v2.2c0,0.7-0.2,1.3-0.6,1.8l-20.2,23.1c-4,4.5-6.9,8.4-8.7,11.8
		c-1.8,3.4-2.7,6.7-2.7,10c0,2.7,0.6,4.7,1.7,6c1.1,1.3,2.6,2.2,4.6,2.7c1.9,0.4,4.5,0.7,7.7,0.7c2.9,0,5.6-0.1,8.1-0.4
		s5.5-0.7,9.1-1.4l0.5,2.7c-3.9,0.9-7.1,1.6-9.6,1.9c-2.5,0.3-5.1,0.5-7.9,0.5C787.9,1451.2,784.5,1450.9,782,1450.2z"/>
</g>
</svg>
