<?xml version="1.0" encoding="utf-8"?>
<!-- Generator: Adobe Illustrator 25.3.1, SVG Export Plug-In . SVG Version: 6.00 Build 0)  -->
<svg version="1.1" id="Calque_1" xmlns="http://www.w3.org/2000/svg" xmlns:xlink="http://www.w3.org/1999/xlink" x="0px" y="0px"
	 viewBox="0 0 889 1486" style="enable-background:new 0 0 889 1486;" xml:space="preserve">
<style type="text/css">
	.st0{fill:#EFEFEF;}
</style>
<path class="st0" d="M540,1174.7c-9.6-1.8-21.8-4.1-34.1-6.5c-80.8-15.8-161.7-31.7-242.5-47.6c-41.2-8.1-82.3-16-123.5-24.2
	c-25.3-5-39.7-27.6-34-52.5c34.9-153.3,69.8-306.7,104.7-460c0.8-3.6,0-5.4-3-7.2c-14-8.5-27.9-17-41.7-25.7
	c-14.2-8.9-17.2-24.4-5.9-36.8c8.7-9.6,19.1-17.5,29-25.9c17.1-14.4,34.4-28.4,51.5-42.8c1.4-1.1,2.2-3.3,2.7-5.1
	c5.1-22,10.7-44,14.9-66.2c5.2-27.4,30.2-41.4,55.5-36.4c118,23.4,236.1,46.4,354.2,69.6c12.6,2.5,25.2,4.8,37.7,7.3
	c25.6,5.2,39.8,27.5,34,53c-30.1,131.9-60.1,263.8-90.2,395.7c-1,4.5,0.2,7.1,4.1,9.4c24.8,14,49.5,28.1,74.3,42.1
	c10.3,5.8,21.1,10.8,31,17.2c5.7,3.7,11.6,8.5,14.9,14.3c6.6,11.4,4.8,23.4-1.9,34.5c-7.3,12.2-17.4,21.8-27.9,31.1
	c-31,27.6-61.8,55.4-92.6,83.1c-19,17-37.9,34.1-57,51c-7.5,6.6-15.4,12.7-23.2,18.9C562.8,1171.5,553.3,1174.5,540,1174.7z
	 M442.8,1121.2c16.4,3.6,32.3,7,48.1,10.7c3.9,0.9,6.9,0.4,10.2-1.8c20.9-14,41.9-27.8,62.7-41.9c2.1-1.4,4-4.1,4.5-6.5
	c8.2-35,15.8-70.1,24.3-105c2.4-9.9,1.8-17.5-3.8-26.5c-22.7-36.3-44.5-73.1-66.5-109.8c-2.4-4.1-5.8-6.1-10.3-6.9
	c-41.8-6.6-83.6-13.3-125.4-20c-3.7-0.6-5.9,0.1-8.4,3.2C335,870,291.5,923.5,248.1,977c-7.8,9.7-15.6,19.4-23.5,29.1
	c23.9,26.5,47.4,52.8,71.3,78.9c2.4,2.6,6.1,4.7,9.5,5.5c35.2,8,70.6,15.7,105.8,23.6c3.4,0.8,4.9,0.4,6.3-3.1
	c25.6-62.9,51.4-125.7,77.1-188.5c0.6-1.4,1.3-2.8,2-4.2c0.3,0.1,0.5,0.2,0.8,0.3C479.3,986.1,461.1,1053.4,442.8,1121.2z
	 M401.4,788.4c1.9,0.5,3.1,0.9,4.3,1.1c36.8,6.1,73.6,12.1,110.4,18.2c5.6,0.9,11.6,0.9,16.7,3c19.4,8.1,38.5,16.9,57.8,25.4
	c10,4.4,20,8.7,30.6,13.2c0.6-2.1,1.1-3.7,1.4-5.2c18.6-81.6,37.2-163.2,55.8-244.8c10.5-46.1,21-92.1,31.5-138.2
	c2-8.9-1.5-14.5-10.5-16.4c-1.6-0.4-3.3-0.7-4.9-1c-82.9-16.3-165.9-32.5-248.8-48.8c-9.4-1.8-18.8-3.6-29.4-5.6
	c1.7,2.3,2.6,3.6,3.6,4.9c18.1,22.4,36.2,44.9,54.3,67.3c14.5,18,29.1,36,43.5,54.1c1.6,2.1,2.9,5,3,7.6c0.3,7.3-0.2,14.6-0.3,21.9
	c-0.5,25.9-0.9,51.9-1.7,77.8c-0.3,8.5-0.4,17-6.3,24.6c-20.7,26.4-40.8,53.2-61.4,79.7c-9.8,12.6-20.2,24.8-30.2,37.2
	C414.3,772.2,408,780.1,401.4,788.4z M378.7,722.6c0.1,0.4,0.3,0.8,0.4,1.2c-1.6,0.7-3.1,1.5-4.7,2.2
	c-57.9,24.9-115.8,50-173.8,74.6c-6.6,2.8-9.7,6.6-11.2,13.4c-13.7,61-27.6,122-41.5,183c-1.2,5.5-0.6,6.3,5,5.8
	c11.7-1.1,23.4-2.3,35.2-3.3c3.9-0.3,6.6-2.3,9-5.3c42.4-52.4,84.8-104.7,127.3-157.1c33.2-41,66.4-81.9,99.7-122.8
	c2.1-2.6,2.6-4.7,1.2-8c-10.5-24.3-21-48.6-31.1-73c-1.9-4.5-4.4-5.9-9-5.8c-8.7,0.2-17.3,0.3-26-0.1c-4-0.2-6.3,1.1-8.5,4.4
	c-24,35.9-48.2,71.7-72.3,107.6c-0.9,1.4-1.6,3-3.2,5.8C310.8,737.4,344.8,730,378.7,722.6z M448.9,599.9
	c-18.4-61.2-36.7-122.1-55-183.1c-1.3,0.2-2,0.2-2.6,0.5c-39.4,14.2-78.8,28.4-118.2,42.8c-1.7,0.6-3.5,3-4,4.9
	c-7.6,32.7-15.1,65.5-22.6,98.2c-0.6,2.8-0.2,4.5,2.4,6.2c11.3,7.6,22.6,15.3,33.7,23.3c5.6,4,11.1,6.6,18.6,6.4
	c19.4-0.6,38.8,0.2,58.2,0.4c18.1,0.2,36.2,0.4,54.3,0.5C425.2,599.9,436.6,599.9,448.9,599.9z M439.8,463.6
	c-0.4,0.2-0.7,0.5-1.1,0.7c2,6.7,3.9,13.3,5.9,20c12.3,40.8,24.6,81.5,36.8,122.3c3.1,10.5-1.7,22.8-15.9,22
	c-13.7-0.8-27.5-0.2-41.9-0.2c7.9,18.7,15.9,37.4,23.9,56.3c0.6-0.6,1-0.8,1.3-1.2c13.5-18.1,27.1-36.2,40.5-54.4
	c1-1.3,1.4-3.3,1.5-5c0.3-5.3,0.2-10.6,0.3-16c0.6-24.1,1.3-48.2,1.8-72.3c0.1-4.2-0.9-7.9-3.8-11.4c-10.5-12.5-20.6-25.4-30.8-38.1
	C452.1,478.8,445.9,471.2,439.8,463.6z M238.7,598c-9.6,42.2-18.9,83.5-28.3,124.7c0.3,0.1,0.7,0.3,1,0.4
	c29.2-31.7,58.4-63.4,87.7-95.2c-0.1-0.4-0.3-0.9-0.4-1.3c-2.4,0-4.8,0-7.1,0c-5.8-0.1-11.4-0.4-16.5-4.1c-9.9-7.2-20.2-14-30.3-21
	C242.9,600.5,241.1,599.5,238.7,598z M392.5,385.9c0-0.4,0-0.8-0.1-1.3c-10.8-2.1-21.5-4.2-32.3-6.3c-17.6-3.5-35.2-7-52.8-10.5
	c-8.6-1.7-17.1,1.2-19.2,12.8c-2.5,13.7-6.1,27.3-9.1,40.9c-0.3,1.5-0.5,3.1-1,5.7C316.8,413.2,354.6,399.6,392.5,385.9z
	 M664.9,1021.5c14.9-10.1,29-19.8,43.8-29.9c-24.5-20.4-48-39.9-72.1-59.8c-1.3,5.6-1.7,10.5-3.5,14.9c-4.5,11.5-1.8,21,5,31
	C647.6,991.5,655.7,1006.3,664.9,1021.5z M739.7,979.6c2.9-3.6,5.8-6.7,8.1-10c4.8-6.8,4.5-8-2.7-12.1c-17.8-10.1-35.6-20-53.4-30.1
	c-13.2-7.5-26.4-15-39.7-22.6c-0.3,0.4-0.6,0.9-0.9,1.3C680.2,930.3,709.2,954.4,739.7,979.6z M218.3,550.3
	c4.6-20.2,9.1-40.3,14-61.5c-16.7,13.9-32.4,26.8-48.3,40.1C195.7,536.2,206.6,543,218.3,550.3z M225.5,1072.6
	c-1.3-1.9-2.1-3.3-3.1-4.7c-7.8-11-15.9-21.8-23.4-33c-3.6-5.4-7.1-8.2-14.1-6.9c-9.2,1.7-18.6,2.3-28.9,3.4
	c1.7,1.4,2.5,2.2,3.4,2.8c14.3,10,28.8,19.8,42.8,30.2C209.2,1069.6,216.8,1070.9,225.5,1072.6z M608.2,1058.8
	c11.6-7.7,22-14.6,32.9-21.8c-6.8-11.2-13.3-21.9-20.5-33.8C616.3,1022.3,612.4,1039.9,608.2,1058.8z M258.4,716.5
	c-0.3-0.2-0.6-0.4-0.9-0.7c-15.5,16.9-31.1,33.8-46.6,50.7c4.2-0.2,7.6-1.6,11.1-2.6c4.7-1.3,7.9-4.1,10.6-8.2
	c7.9-12.3,16.2-24.3,24.4-36.4C257.5,718.4,257.9,717.4,258.4,716.5z M558.1,1125.1c-8.2,5.6-15.7,10.6-23.4,15.9
	C549.4,1147,556.4,1142.3,558.1,1125.1z M588.2,891.6c-0.4,0.3-0.8,0.6-1.2,0.9c5.8,9.5,11.5,19.1,17.8,29.6c1-4.5,2-7.7,2.4-11
	c0.2-1.4-0.3-3.5-1.3-4.3C600.2,901.5,594.1,896.6,588.2,891.6z M620.6,1084.7c-0.2-0.3-0.5-0.6-0.7-0.8
	c-5.5,3.7-10.8,7.5-16.5,10.9c-3.5,2.1-5,4.9-4.9,9.7C606.2,1097.6,613.4,1091.2,620.6,1084.7z"/>
</svg>
