<svg id="Calque_1" data-name="Calque 1" xmlns="http://www.w3.org/2000/svg" xmlns:xlink="http://www.w3.org/1999/xlink" viewBox="0 0 552.8 520.39"><defs><style>.cls-1{fill:none;}.cls-2{clip-path:url(#clip-path);}.cls-3{fill:#4150b1;}.cls-4{fill:#8766ac;}.cls-5{fill:#f6bf75;}.cls-6{fill:#d77185;}.cls-7{fill:#efefef;}</style><clipPath id="clip-path" transform="translate(-7.64 -12.56)"><rect class="cls-1" x="-887.06" y="-207.73" width="1723" height="969.19"/></clipPath></defs><g class="cls-2"><g id="Web_1920_6" data-name="Web 1920 6"><path id="Tracé_19" data-name="Tracé 19" class="cls-3" d="M7.64,218.7v40.81L284,533l276.4-273.44V218.7L284,492.14Z" transform="translate(-7.64 -12.56)"/><path id="Tracé_19-2" data-name="Tracé 19" class="cls-4" d="M7.64,178.16V219L284,492.41,560.44,219V178.16L284,451.6Z" transform="translate(-7.64 -12.56)"/><path id="Tracé_19-3" data-name="Tracé 19" class="cls-5" d="M7.64,96.53v40.81L284,410.78l276.4-273.44V96.53L284,370Z" transform="translate(-7.64 -12.56)"/><path id="Tracé_19-4" data-name="Tracé 19" class="cls-6" d="M7.64,137.36v40.81L284,451.61l276.4-273.44V137.36L284,410.8Z" transform="translate(-7.64 -12.56)"/></g></g><polygon class="cls-7" points="0 83.97 276.4 357.41 552.8 83.97 552.8 61.65 0 61.65 0 83.97"/><rect class="cls-7" width="552.8" height="65.79"/></svg>