<svg id="Calque_1" data-name="Calque 1" xmlns="http://www.w3.org/2000/svg" viewBox="0 0 889 1480.48"><path class="st0" d="M889,895v119l-81.21-65.33a4.08,4.08,0,0,0,.55,3.37q39.25,65.18,78.53,130.34A24.24,24.24,0,0,0,889,1085v92c-.87-1.2-1.84-2.34-2.61-3.6q-51.61-84.68-103.2-169.37Q738,929.76,692.82,855.48c-1.81-3-3.79-5-7.58-5.54-27-4.19-53.91-8.64-80.86-13q-84.79-13.69-169.58-27.48c-3.67-.61-5.74.17-8,3q-32.34,40-64.92,79.93Q248,1032.36,134,1172.28c-2.09,2.57-2.82,4.24-.19,7.1q69.91,76,139.7,152a12.55,12.55,0,0,0,5.81,3.4c8.21,2.14,16.5,4,24.77,5.85Q396.57,1361.86,489,1383c8.61,2,6.9,2.61,10.18-5.45q30.88-75.82,61.63-151.7,37.08-91.35,74.17-182.71c3.36-8.26,6.76-16.51,10.14-24.76l.69.26L544.59,1395.72a12.84,12.84,0,0,0,2.06,1c32.77,7.47,65.54,15,98.36,22.23,2,.45,4.89-.45,6.72-1.68Q743,1356,834.15,1294.55c18.24-12.26,36.57-24.38,54.85-36.56v132q-8.73,7.46-17.46,14.9c-26.52,22.66-50.3,48.45-79.54,68-9.68,6.48-19.78,10.69-31,11-21.09.5-42.13,1-63-4.58-22-5.87-44.51-9.87-66.78-14.8q-49.73-11-99.42-22.15-39.25-8.76-78.5-17.5c-15.27-3.39-30.56-6.69-45.83-10.11-22.24-5-44.46-10.06-66.71-15-18.19-4.08-36.41-8.06-54.62-12.11-16.25-3.61-32.49-7.28-48.74-10.88q-33.65-7.47-67.29-14.88-33.39-7.41-66.76-14.91-32.64-7.31-65.29-14.6c-12.67-2.81-25.36-5.54-38-8.3V1173c2.47-.32,4.94-.72,7.42-1,21.87-2.23,43.75-4.33,65.6-6.78a11.5,11.5,0,0,0,6.86-3.89q54.11-66.48,107.93-133.19C217,992,246,955.67,275.13,919.5c8.87-11,18.12-21.69,27-32.66q46.33-57,92.56-114.08,61.49-75.9,123-151.8c2-2.49,2-4.34.73-7.07-3.71-7.8-7.13-15.73-10.61-23.64-18.21-41.37-36.49-82.71-54.5-124.18-2.18-5-4.81-7-10.37-6.93-20,.23-40,.06-60-.29-4.37-.08-6.79,1.32-9.2,4.95q-64.16,96.82-128.6,193.46c-6.43,9.68-12.83,19.37-20,30.22L422,643.84a10.48,10.48,0,0,1-4.12,2.86q-74.54,32-149.08,63.95Q172.26,752,75.72,793.39a9.53,9.53,0,0,0-4.6,5.63c-2,7.19-3.22,14.57-4.82,21.86Q54.9,872.8,43.46,924.71,26,1004.17,8.39,1083.59C5.69,1095.75,2.8,1107.85,0,1120V899a15.91,15.91,0,0,0,1.11-2.64q8.21-36,16.35-72.05,31.62-139.69,63.23-279.4,18.84-83.26,37.71-166.51c.83-3.67,0-5.41-3.07-7.17-5.62-3.25-11-6.85-16.52-10.32-28.56-18.09-57-36.33-85.74-54.17-7.44-4.62-11.32-10.15-10.46-19.14.58-6.11-.26-12.36.29-18.47.35-3.85,1.12-8.36,3.41-11.19,7.21-8.88,14.43-18.05,23.08-25.42,29.92-25.46,60.48-50.17,90.73-75.24,12.18-10.09,23.77-21,36.46-30.35,9.67-7.16,20.41-13,31.11-18.61,14.44-7.56,28.87-15.42,44-21.22,32.93-12.58,66.31-24,99.55-35.79Q391.27,30,451.35,9A100.21,100.21,0,0,1,471.1,3.94c8.91-1.18,17.27,1.17,23.61,8,3.72,4,6.9,8.52,10.36,12.79q32.84,40.59,65.68,81.18,32.91,40.84,65.69,81.8c17,21.14,34,42.3,51.22,63.29,4,4.85,5.24,9.94,5,16.11-.79,17.13-1.2,34.29-1.57,51.45-.86,39-1.52,78-2.42,117-.33,14.32-1.25,28.62-1.59,42.94-.13,5.19-2.25,9.13-5.34,13Q583.47,615.86,485.36,740.27c-6.59,8.35-13.16,16.71-20.2,25.64,3,.82,5.31,1.67,7.7,2.08,21,3.58,42,7,63,10.63,45.44,7.78,90.91,15.42,136.3,23.54,21.18,3.78,43.11,4.91,62.5,15.92,2.44,1.4,5.15,2.33,7.73,3.5,39.21,17.8,79.61,33.12,116.24,56.3C868.44,884.09,878.86,889.3,889,895ZM455,61.61C432.81,69.92,411.51,78,390.13,85.9c-45.57,16.85-91.23,33.47-136.74,50.47-20.26,7.57-40.3,15.75-60.33,23.92A39.32,39.32,0,0,0,182.19,167Q122,220,61.92,273.26c-.94.84-1.71,1.87-2.94,3.22,2.08,1.55,3.71,2.94,5.49,4.06,4.94,3.09,10.06,5.91,14.9,9.13q89.2,59.41,178.4,118.83a15.9,15.9,0,0,0,8.24,2.59q144.48.78,289,1.27c1.58,0,3.17-.25,5.27-.42C525.09,295,490.11,178.52,455,61.61Zm85.33,91.62-1.84,1c1,3.22,2,6.43,3,9.66q19.68,65.28,39.35,130.56,17.9,59.57,35.73,119.15c2.72,9.06,5.3,17.79,3.51,27.77-1.5,8.38-4.36,14.34-11.75,18.82-4.77,2.89-9.12,4.54-14.8,4.24-14.29-.75-28.62-.83-42.93-1.15-11.91-.27-23.83-.48-35.74-.73-3.79-.08-4.91,1.59-3.25,5.56,2.12,5.06,4.68,9.94,6.83,15q17.61,41.59,35.12,83.22c1.77,4.19,2.9,4.28,5.59.67Q597,516,634.75,465.07a13.69,13.69,0,0,0,2.6-7.22c.32-9,0-18,.2-27,.73-26.78,1.65-53.56,2.45-80.34.23-7.46.38-14.93.5-22.39.18-11.77.24-23.54.49-35.3.18-8.69-.37-16.52-6.57-24.07-30.34-36.92-60-74.36-90-111.59A45.52,45.52,0,0,0,540.31,153.23ZM280.86,459.33c-3.16-.17-4.76-.29-6.37-.33-9.66-.28-19.33-.37-29-.91a16.84,16.84,0,0,1-7.82-2.52c-13.42-8.68-26.69-17.6-40-26.45-13.09-8.7-26.17-17.42-39.57-26.33Q131.93,526,105.91,648.31l1.16.53ZM142.27,1305.46a57.13,57.13,0,0,0-3.24-5.9q-30.79-42.09-61.76-84.06a6.33,6.33,0,0,0-4.81-2.29c-21.66,2.37-43.29,5-64.92,7.61-1.94.24-3.79,1.34-6.63,2.39,2.57,2.23,4.19,3.86,6,5.2q46.72,34.18,93.51,68.29c1.33,1,2.73,2.22,4.24,2.49C116.77,1301.33,128.89,1303.25,142.27,1305.46ZM884,1323.3l-1.08-1.46c-4.22,2.2-8.68,4.06-12.62,6.68-15.51,10.31-30.8,21-46.28,31.32q-50.18,33.57-100.41,67c-1.5,1-2.6,2.59-4.85,4.89,5.07,1,8.93,1.15,12.43,2.4,13.82,4.95,25.42,0,35.54-8.62,29.31-24.88,58.27-50.17,87.29-75.4C864.09,1341.33,874,1332.25,884,1323.3ZM100.05,731.77l.79,1.41c2.47-.5,5.1-.61,7.38-1.56,11.36-4.73,22.68-9.55,33.87-14.67a16.61,16.61,0,0,0,6.6-5.58q28.67-43,57-86.18c3.8-5.76,7.52-11.57,11.27-17.35l-.9-.69Z" transform="translate(0 -3.65)"/>
<style type="text/css">
	.st0{fill:#141414;}
</style>
</svg>