<svg id="Calque_1" data-name="Calque 1" xmlns="http://www.w3.org/2000/svg" xmlns:xlink="http://www.w3.org/1999/xlink" viewBox="0 0 553.9 524.51"><defs><style>.cls-1{fill:none;}.cls-2{clip-path:url(#clip-path);}.cls-3{fill:#f6bf75;}.cls-4{fill:#8766ac;}.cls-5{fill:#d77185;}.cls-6{fill:#4150b1;}.cls-7,.cls-8{fill:#efefef;}.cls-7{stroke:#efefef;stroke-width:2px;}</style><clipPath id="clip-path" transform="translate(-7.44 -8.44)"><rect class="cls-1" x="-887.06" y="-207.73" width="1723" height="969.19"/></clipPath></defs><g class="cls-2"><g id="Web_1920_6" data-name="Web 1920 6"><path id="Tracé_16" data-name="Tracé 16" class="cls-3" d="M7.64,98v40.81L284,412.27l276.4-273.43V98L284,371.47Z" transform="translate(-7.44 -8.44)"/><path id="Tracé_17" data-name="Tracé 17" class="cls-4" d="M7.64,179.21V220L284,493.47,560.44,220V179.21L284,452.65Z" transform="translate(-7.44 -8.44)"/><path id="Tracé_18" data-name="Tracé 18" class="cls-5" d="M7.64,138.83v40.81L284,453.08l276.4-273.44V138.83L284,412.27Z" transform="translate(-7.44 -8.44)"/><path id="Tracé_19" data-name="Tracé 19" class="cls-6" d="M7.64,218.7v40.81L284,533l276.4-273.44V218.7L284,492.14Z" transform="translate(-7.44 -8.44)"/><path id="Tracé_21" data-name="Tracé 21" class="cls-7" d="M8.44,26.36l.32-1.87.45-1.58.5-1.11.63-1.44.5-1.26.88-1.5.83-1.14,1-1.16L15,13.86,16.11,13l1.33-.82L19,11.38l1.53-.66,2.2-.73,2.14-.55h520.4l1.31.23,1.81.63,1.28.57,1.64.92,1.17.85.87.76,1.07.78.83,1,1.17,1.27,1.46,2,2.44,4.66V33.27l-.08,65.43L284.26,372,8.44,98.55Z" transform="translate(-7.44 -8.44)"/></g></g><rect class="cls-8" y="0.07" width="553.87" height="61.18"/></svg>